<mxfile host="Electron" agent="Mozilla/5.0 (Windows NT 10.0; Win64; x64) AppleWebKit/537.36 (KHTML, like Gecko) draw.io/24.7.5 Chrome/126.0.6478.183 Electron/31.3.0 Safari/537.36" version="24.7.5">
  <diagram name="Page-1" id="XAR98HsV-rtMGRGIGcYI">
    <mxGraphModel dx="1500" dy="887" grid="1" gridSize="10" guides="1" tooltips="1" connect="1" arrows="1" fold="1" page="1" pageScale="1" pageWidth="850" pageHeight="1100" math="0" shadow="0">
      <root>
        <mxCell id="0" />
        <mxCell id="1" parent="0" />
        <mxCell id="LMz8NPfEcVhVKiX4Ou-Z-3" style="edgeStyle=orthogonalEdgeStyle;rounded=0;orthogonalLoop=1;jettySize=auto;html=1;" edge="1" parent="1" source="LMz8NPfEcVhVKiX4Ou-Z-1" target="LMz8NPfEcVhVKiX4Ou-Z-2">
          <mxGeometry relative="1" as="geometry" />
        </mxCell>
        <mxCell id="LMz8NPfEcVhVKiX4Ou-Z-1" value="" style="image;aspect=fixed;html=1;points=[];align=center;fontSize=12;image=img/lib/azure2/identity/Users.svg;" vertex="1" parent="1">
          <mxGeometry x="10" y="340" width="64" height="70" as="geometry" />
        </mxCell>
        <mxCell id="LMz8NPfEcVhVKiX4Ou-Z-2" value="" style="image;sketch=0;aspect=fixed;html=1;points=[];align=center;fontSize=12;image=img/lib/mscae/DNS.svg;" vertex="1" parent="1">
          <mxGeometry x="130" y="350" width="50" height="50" as="geometry" />
        </mxCell>
        <mxCell id="LMz8NPfEcVhVKiX4Ou-Z-20" style="edgeStyle=orthogonalEdgeStyle;rounded=0;orthogonalLoop=1;jettySize=auto;html=1;exitX=1;exitY=0.5;exitDx=0;exitDy=0;exitPerimeter=0;" edge="1" parent="1" source="LMz8NPfEcVhVKiX4Ou-Z-4" target="LMz8NPfEcVhVKiX4Ou-Z-7">
          <mxGeometry relative="1" as="geometry" />
        </mxCell>
        <mxCell id="LMz8NPfEcVhVKiX4Ou-Z-4" value="&lt;font color=&quot;#ffffff&quot;&gt;Cloudfront&lt;/font&gt;" style="sketch=0;points=[[0,0,0],[0.25,0,0],[0.5,0,0],[0.75,0,0],[1,0,0],[0,1,0],[0.25,1,0],[0.5,1,0],[0.75,1,0],[1,1,0],[0,0.25,0],[0,0.5,0],[0,0.75,0],[1,0.25,0],[1,0.5,0],[1,0.75,0]];outlineConnect=0;fontColor=#232F3E;fillColor=#8C4FFF;strokeColor=#ffffff;dashed=0;verticalLabelPosition=bottom;verticalAlign=top;align=center;html=1;fontSize=12;fontStyle=0;aspect=fixed;shape=mxgraph.aws4.resourceIcon;resIcon=mxgraph.aws4.cloudfront;" vertex="1" parent="1">
          <mxGeometry x="260" y="336" width="78" height="78" as="geometry" />
        </mxCell>
        <mxCell id="LMz8NPfEcVhVKiX4Ou-Z-5" style="edgeStyle=orthogonalEdgeStyle;rounded=0;orthogonalLoop=1;jettySize=auto;html=1;entryX=0;entryY=0.5;entryDx=0;entryDy=0;entryPerimeter=0;" edge="1" parent="1" source="LMz8NPfEcVhVKiX4Ou-Z-2" target="LMz8NPfEcVhVKiX4Ou-Z-4">
          <mxGeometry relative="1" as="geometry" />
        </mxCell>
        <mxCell id="LMz8NPfEcVhVKiX4Ou-Z-6" value="Elastic Beanstalk container: Hosting Application Instances" style="points=[[0,0],[0.25,0],[0.5,0],[0.75,0],[1,0],[1,0.25],[1,0.5],[1,0.75],[1,1],[0.75,1],[0.5,1],[0.25,1],[0,1],[0,0.75],[0,0.5],[0,0.25]];outlineConnect=0;gradientColor=none;html=1;whiteSpace=wrap;fontSize=12;fontStyle=0;container=1;pointerEvents=0;collapsible=0;recursiveResize=0;shape=mxgraph.aws4.group;grIcon=mxgraph.aws4.group_elastic_beanstalk;strokeColor=#D86613;fillColor=none;verticalAlign=top;align=left;spacingLeft=30;fontColor=#D86613;dashed=0;" vertex="1" parent="1">
          <mxGeometry x="400" y="200" width="420" height="360" as="geometry" />
        </mxCell>
        <mxCell id="LMz8NPfEcVhVKiX4Ou-Z-8" value="Auto Scaling group" style="points=[[0,0],[0.25,0],[0.5,0],[0.75,0],[1,0],[1,0.25],[1,0.5],[1,0.75],[1,1],[0.75,1],[0.5,1],[0.25,1],[0,1],[0,0.75],[0,0.5],[0,0.25]];outlineConnect=0;gradientColor=none;html=1;whiteSpace=wrap;fontSize=12;fontStyle=0;container=1;pointerEvents=0;collapsible=0;recursiveResize=0;shape=mxgraph.aws4.groupCenter;grIcon=mxgraph.aws4.group_auto_scaling_group;grStroke=1;strokeColor=#D86613;fillColor=none;verticalAlign=top;align=center;fontColor=#D86613;dashed=1;spacingTop=25;" vertex="1" parent="LMz8NPfEcVhVKiX4Ou-Z-6">
          <mxGeometry x="190" y="45" width="210" height="304" as="geometry" />
        </mxCell>
        <mxCell id="LMz8NPfEcVhVKiX4Ou-Z-9" value="" style="outlineConnect=0;dashed=0;verticalLabelPosition=bottom;verticalAlign=top;align=center;html=1;shape=mxgraph.aws3.instances;fillColor=#F58534;gradientColor=none;" vertex="1" parent="LMz8NPfEcVhVKiX4Ou-Z-8">
          <mxGeometry x="75" y="98.5" width="60" height="63" as="geometry" />
        </mxCell>
        <mxCell id="LMz8NPfEcVhVKiX4Ou-Z-16" value="Instances running Tomcat" style="shape=image;verticalLabelPosition=bottom;labelBackgroundColor=default;verticalAlign=top;aspect=fixed;imageAspect=0;image=data:image/png,iVBORw0KGgoAAAANSUhEUgAAAQsAAAC9CAYAAACksViOAAAAAXNSR0IArs4c6QAAIABJREFUeF7sfQeYXVX1/brntlempUNEWgBp0kNHelEITRClSu9KDdJ7l14EkapiAVGKtB9IFSmCIipNWiAQUiaZ9t677Zx/1j73Tob8qSEzgTD3+3DizLvtvHP22Xvttdd2MHgMjsDgCAyOwKcYAedTfGbwI4MjMGsEHKRQuBYZ9h8clnk7Ai7cfTWyqwzgDsSTDBqLgRjl+eQevu8flGTpFTAGTuDDJMnF0Dh8Pnm9L9NrjFdwzjEwjut5SNN0awB39vcLDBqL/h7h+er6ysjrOFp+BOUy4kYD0OZYAOfMV6/6RXwZF3tA43p+A8pR0Np+DwDuBfDt/n7kQWPR3yM831zfWweOeTwIAu5k0DoBHAeuo+QNsywznud9O03T++abV/7ivMhSUHjRDZTK4txAGMAPAiRRDN/3TZIk9ovox2PQWPTj4M5Pl1Yq+LU2ZmeYDIBGtVpGracOuhqu69JYyOuWSqVnGo3GBgBq89P7z6t3cR3clgHbWY9OfAqAHoWyPx04MEYcvpEApvTncw4ai/4c3fnq2p5RrgMaC5fzNLU7nOu7iJNMDIbneYiiCIoTGThMa33JfDUEA/gyHrChUs6DiTaOcYAwrCCKGoCXY5mpNc4wmp4FkiTZHcAv+/MRB41Ff47ufHNtf01HOX+DSUBwc2hbGZXAxaQp3UgNxLvoeziO3e2UUhO01ksBiOaboRiAF/GBGwDsQXNs4IL+g7gVrksrbZ+A/04T8fI43kqpa7Ms26c/H2/QWPTn6M4n1w4qTafFtdqJnJjc1zbdaDUs8vUFcOONd0Gmq2OnUe4Oi2fBfxf/H8BmAP5vPhmOfn0ND8iUcpQxDrSxI26NMb01B67nIKORUOpY6PRsx7HjrJQyWut+xS0GjUW/fvXzycUd7x+e76yUxQlKLnDyiQdiSDXE+J9cjJ4MyPe63pflTtfXeDA8SdP0YmAwzfpRM6JU8tZtROmjjhFUQg7Pr4DRRqYZcvC3Gsph8imhGXFdBZ31JkTklH5dz/168flkqQy+hsOUqYZHT9gAt/zqTIwaWsGm3z5cUMzZjYXM2txg0FAkCf0POZ4EsNbggP5/I3AEHFzAIfNdR/DLLOPSVBKG8Ker+HuOdIrWavDYjJ7Gt3z5UpSTZr1eXNtMg9zRX+M7aCz6a2Tnm+sG33R8/S9kKQIFlBRw/10X4RuLj8ZiS+yEHgCJ44hxmC30+P88jdzb4F7oyzY5eNAOXBcE/p5pnEjY4fA/8R7oSbgMPGwQIsmPGNXQQRxl34uBW5s9vF9LMSKHOpmJ2qjRaDzUX8M6aCz6a2Tnk+sG5abvx43u39D99QwwtAq88NzNKKsa9trvcNz+ly5BLwtPom/4wX8XaVXiGCQRkacRx0IWCEjPmE+GaU5f40Hf9zcqPK9KpYRarSHXCsIy4ogemQNXxi4RqNN3gBaDpmVXG75Qc8vwu+99+KXFtZIwj6f9GMClc/own3TeoLH4pBH6qv9d+VeVSmr/qBGh6gObr78gfvmLC6Eb7+Nn1/wOJ5z/tw+kOgoPY/Zh4+9LpRLq9bqkWOlZpGn6lfUwHMf5p+u6K6apzWYY4a/kh6xKehZKUk0uQ5MsQajEYJtuA3XW+G/v0Ii9W86/4k7UE6BcLnNsLwJwRH9N2UFj0V8jO79c1/GfBZJViFcELnDQnmNx5kmHIFA9ePLpF7HpDpehuw9o8WHGoi9pq/AwrGuttNZ6QIqgvkhfh+u6T2RZthaNZpbzVUqy2Hvgh4EYD/EqXKISGkxZ07z6LjCyFWd+Y9VRZx/yg21PfOOd6cccfeLvYSzPguP5D631Kv31roPGor9Gdr65rm+gUviOEXDzZz/9HnbcZh34egbqWTOWXO0IzIhsyt9A9cbYRiIM7ppCzYDnKXAX7d08HTdPrSrmU8TV+IocNziOswcNAsMyR8BLFykzHgIKZ1Cua+s+yMYS0qYWLIODtPm6oxbfdtsNV9px3Po3PPz4P1t23u9qdCcowjtmWfstfTpoLL4iM3SOX9MJDFmCnpsi0MA9v9sfa648GkrFUOEIHHXmb3HZ1U9KSi/JPBjBLnmkcH2DjLE0Z1nB3JKfuYstf/C4XK7W6D5gjp/xy3PieADn+r6LJM1kzExvqYeXF+j1wX0JdqoARtgshtkow9Peef7KN4dXuxb5+7OvYpOdfoHUD5GmwnszYrH76Rg0Fv00sPPJZZcB/P/KRHVTlDTw5L1HYLmlmpBldaRuC/76wnRsvcOFSGLZE+EHrWjEDbhehiyLZ3kSfWie9p/cJ1nZ4MsMB5KNgLTfkPx5/X0EQbB8nMQv8FUdl56WhyROxWOwqzx3rpw+MV2vYdVwPWCtVRfYa98fbvnPrTda7rlmNQP/fmUy1hp3FerkYuWVwDD9x7UYNBbzehZ9ge8fuu63I+3eze2PmjfNLvDC4ydi4QUcpGkN2qsg9RbEWusfiNdeZ1Dto5460GReqHyHpHcNRTMC/oXhiZafnOB8eQ2/VELSaPCX8y9+wZdXQpaw37jUewSIGnHudfWNxIrPaBALdjLA1TDj1lqoeu7lez/39ZFqaS+L8eY7KZZZ71ykvo8sSQvGbLW/ivgGjcUXeLHO60fzgX1TFf7c6EQW+ug24D9P/BStpQ6kWR2OX0LmNOPmWx/F0cf8GV1pXgRiowvZDbM62QI+XMmU0kxEYi4kHC9m36ww5WpozH/hiOPc5vvhdkkSo1KpolYjO2U26qXwKiyl2zobdEGs5xE6wBIL4czdfrDOlUf9aNzENJoEzzjoiIZioRVORM0WkchRLvtr1esJyW9z/Rg0FnN9SOefC/rKvSzRziGcsYHKsMqyzXjinp/CSSciTWpSA6LCCt6f7GC5VU5GnRVjzPYFATRDEE7gdJaxoMHJCmNRrA1NWjOQCUAKQ07i/ETYCoLmpZM0ftHMEqqBw9oZ+f90u7QYzSKKIF/Nwg4EiFME9EAA/YN9Vy0du9umD359AW895fTAOBkSf2G0LXIU4nwV57f4HoBb+mMWDhqL/hjV+eSaHpw/pXC3gcrgGYNxGy+OP1w3HognQJtY8v9SLOaMwOW/eAQnnnW3MDpTy1SGV3KR1jI4hkGIBT41EqTcVfOAg8uCIB/L3lkH4bvuz5Msm2/0PR14bwPOQtZ5MhCFKwGMPRkLqfvIPSuLXxAk5uBkEvqFAJZfDGeNP3iz23bcbv2/I+0BPHpmdTEWQxc/Ej2M+sj65Di67j5Zll3bH1Nw0Fj0x6jOJ9d0gYczqPWJPzBtutdOY3HpGTvD1+/DUUzxOTBxBCcYic6eEVh0+f1Avaaadm0lqmyXTAGSxkzcwhZDMQyR9cDfa8B3QmQkJTkKymiTIJ17iP7w4c2VGppT1WhjIGSMWbCQkbE/BVC0+zf/6XkwRk9m3lJrp933s+6urq6pc/KVhgiXgpu9HGcpQs9HIiXl1jawwjzOAIk+Zs8WGTpXLjxEKAP6oP0WH/qTg3Z9sa3JXVDiu6SG2HRBlxbCsDHjUZfUNN/NQZqZM2fa6xPm5Hk/6ZxBY/FJI/QV/ruvnEmJMaNESsEA4w/ZHKcd+R14hmspBbgrkoqcBoidkXj0yQnYYbefgjmQBD5swXReRMZdszcu51aYGwuj4PGzuRlhxK6RfQvAYx8x9OUgwKKuGyxbj+JVobEqlLOpkMHouQsWwpxkXsnW9yJFnrKXnk5DVqRp+EBFCMCTaDnyMEEgBAKyQhoxyiOjshCfcR6olKqPGwcv1evxi0D8MiBDQJr2tdB6Ly/wkMap6NYUmjVySXoDxfMV5lHGieNNb0xj8w2qm+696yZjxm28+lVIGsgaBm5TBTBdSLyR+OZ6h+OVt2d5FgD+bICt+mPaDhqL/hjV+eSagXJ0rA3zmyh5wAVn7In9dloJXvqe0JOlHsR1Ua8lcIJh8MIFcdCPf4rf/vHfyBRQL3hFXCUZEQkFL6ggjWq94B2vbUlbtr6BoGi1Wvl7Z0dtZwCrOy52NxqbFnDorAlr/2XTrnmlFd2U2cvTDCzJiSo9/Jhjsw5ajARdfXuCJZSR0+DAcxVSzYAqz/AWTGyhPOVpyvw+YvP4avljFCQ08R48JQxNpkp5G/4sbEx+UygngKbhdS12QQvrKQU3TbHSMuGjh+6/4VHbfHu1p5uofVqP4AVlgJwK3yB2hmGz752Jx/8+FWGoUI/koSYZgN7TXD8GjcVcH9L554KBckzKnd5YY3HJ2Xth7+9+Ey69dJn9soMD1SbUO2rwwiGoR61Yf5N98drbNjOSUtyJuzKpyzmFQPZ8HQnmkfLi5JLTmBRHsf55br5QZeFlZDL2ak5aYERWIv35WarjxWXsfXJbwsyM3H9W1kGx8t6h+HDh9dhycF7P8/nmsxa3RApyrVmcBqkEZVrTFaUqJIl92LDkIksNUopN5LyKPk6NBTQ9BRPzn6H4UvBjSz2JHbiZRrMPHLbfqqsedug2z7YOcWF6anbIfR8miuG4CrEZih32uRj3PT5B3q0UeqhHmdYw/ZKCHjQW88/anutvMlPnxjCU4K7J8vQrzt8Lu2+zNIJsitgITtiIxCLPlQ03YXThtuHNd3qw9vpnQpWAzhiItYITVCzKH7OGwYGjE1mM2kkAT1HhJUdFPYhWn2z/RTxfGBLSx414NAKIyuL34To+jKFpyhB4BloL6bT3CAKAdAY//+kozxoIJ4UfQghlshDho1wqIWp02QXNK+Q/BXyUMMpDJk8uT49SUEItttrEBC+z4sZ8R6pY8T40hnwn8UoKNJO/c+AYX7AcZonEu9BaQM1jDl1j21OP2/tPiNsR19thEIHMT8NSGu3A9T1AjcK+R9+EX//xWQ5rMWQ0v4PGYq6vhsELfuwI0FiIBgtFWRzg2ksPxE5bLNZrLAjBG1fBauMkcCjYW8/gBSPw5jsxxq5zkgTv4mHIjiwonNyzN4iQzIm4BfZvnOo5puAY8rSM2BIuVvkTS+V5GVt6IkcpsH8vNHb4+dGjgcUWXwDDho5EU8tQ/OnOhzFtuj2Fa15rH8QeMm7vdt0zAIGHVJ5t2WVaseEGY1HrmY7JkyfjrTcm4713I3R32aSmOC35IxemrBDe5lJVbv48tnDUekhiJ3LPhh82BiXXR5rFck3fTcWu7LPrqkdeeM4hF9RnvI6S0kjiHpRb7Es2GhF85cOlh+UuiENP+h2u+eXT8AKxwxwtk5m5CBD3mSGDnsWgwfioEVD03Ik9cLLTs7j5miOw7YajbRjClcLZ47no7JiKlrYqTJqKK+6FQ5GZoXhjQg/G7XAiOrqBjsYsh8FxPaQSEyiEfgVREokmlMX4rPvPfwcsumSRVM7DEEPhAius6GK5ZZfCmCUWwojhFQwdWsHQtmaMGDYUCy4wHJ7volGPchc/hHGacc11f8ApZ/xJNnguzExSuQyPYihPQaUBTBahTKqkBi675IcYN24NlANeh2dQiMZHlhl09XSivX0yZnTVUK95eOXVt/H22xPx9juT8Pw/38VbE6xhE08msuPH/3wpGKNnYhWwLJTRjTLTNMSLZypknfiTTS854kff/7GJpkFlPcJBMWkdTuAijeqiuef6IbJaDO2PxjFn3o4rrn3cGkErvGdMDi3P7ak9aCzm9ojOP9crBQ7q9Aw4QRlO/+GX4/GdtUdaY5HvlORZOGQOkapJZqb24ZTb0Dk1RqV1QcRZBQcccizuf3gyuuq9OQbQY6ERcGLrM+fJEdC7ph3hxNx4o1EYu8pyWGLM1zBm8UWw2KKj4SmDSrWEJGpAeQl01gk/0LLQk6RuGV2G3oGLIGxCklVIVMerb3Zhky2OR1cEJBLxhDbycdPco2GqMgPZD1y7f3/yHCwwMoPndsAxDTiaRCoHRjHkUnA9DUf5SOIydObDOARIfTi8rvExceIUvPTym3jr7Wl46pl/4eGH/4euHDOVAjJjUyZiiGm3EuC3N/0E39n8G+hsfxUhORaBrcyl52GrVFMEIQfNQRJl8JsWxzGn/wFXXveQhFm8VrXcbDrrXYxkerUM59aUHDQWc2sk57/rhB7QIMFKdjMD3P6bY7DJ2DYEepr1LCRQp+tBsIJoHbMO7FjmIWgeirjWQOpkqLSMwG23P46jjrsZ70+zoCdZh7xCCykXGlh7jRK+tf5aWGyxUVhhhaWw6CKjYDQXKbfmVOjNlMEnX0MMVF6+zawGn08xnHCZyqUVS+w2zQXuNSHSFWh/FI487nzcdPPLskhprIT8xBoWSVUG8JHA1Rqrr1jFPXdcCg/vwySTpYgOThmCG2aejSnYFkF4JL4Fb0mcEETUION9XRoQH0YFgApQr2eY0dmDV197HY//9Sn89fHn8dy/yUmxw/jX+87AMou3oeR0AOkMOHwXSQcTj1FQTBPJkEfiwWliHeWFcehxN0gYQuyFXgzNbgZNYzGrim8uzc1BYzGXBnI+vMxQH5iWODb+5pq683fHYqNVm6yxYBaCBiNfLyZpwOGq9VuAzEUcJwLI0c1PjAPlDUOkW/Gr3z6I8cf/Biuu0YR1114V649dDquv+A00N4dI424EgUaW1pElNfEy2NdIJw0oP4Cu16FKFejuCKrUnOMcBRWUD8LS1x67iKXREd0UF/DbkDgteOmNDqy/2YmgcF2D6z3HY6T6NWP1SorKzGzw6Sdug3333BhONgm+y2smuXUhqMhFS/+FF8iBEwImkhpmZoeDRVDF5kr5azcoS3jGRC2p3p5n+RydPRqPPPM/fGOJJbHIAgG8tAOBieFQCyDtselcpyrpVtsm0ogHRWwIQRlR0oITzvsjLv/FY738DRvi6NEA3pvbc3LQWMztEZ1/rjfUhZpGajHddS6PP99yPDZcpQyVTIYbVKDjtOg+1qecgwtlFgGT2Q6GBNS5MOQUOKEsNuNoGMXqVe7QhD8TKGpgGCO7u0xMCfbpLXDxFwSqHCDUBDK4ivhBymHzf2OkQWYXLHfe2IHHhZ1yAVXhVL6GTbY5FE883yU+OlEThlAmIiyoEMBmIp792xlYcGSMwKvBSZV4M5aURYOU53/JsizStfx9n3fuWyQ+S15CFVo2doawLwizJ3JHvkYEl9wVsb70ZIprFqnegmyWWc+KupvecJxxyb04+6L/s2K/jgKbBAB6GQAvze2pOGgs5vaIzj/XG1Jyy+0NYhE5ZvHbGw7HdhuMhBO/B0eVpIVh3qrw0791X2KlkK1zxpIkRfLeW7I480tKztIuIJPlRDBJh9hFRr6GuD5OIOFK4taRSuMdH75x4TPV2OAuHwD+KNz35ARsv9t5iOixSG6Y2RWXDhACZFhlOeDuOy9EyZsCndTgmqoNP2jcHFuvIQpgmuazj47Epx+BOf9kzviyxkIhc0fg9MvuwdkXPmgTSZK6Ff74akDy7Jzf6MPPHDQWc3tE55/r+T6COEEsaTmukWsu3Q+7bz0GKplkF9AcijIVncpkF82xB+u75NcUPIFzPhNQT2xBb+sd63KQkclmzJ4bsoeXAJDEK4wXI/MyMQQu3fgeDRU2A40EWjWj2xmO5cbuiyk9bGHgCm2bC8/PrFdx6rEb4bBDt0bWmARX0qrEKmgUCozCfsG9VaIDuYI+xFicdundOOeiv8gzpfRWZAwHjcX8swy/JG/iQpnM0ZK+o9/+s4v2xq7jxqCEqZIZcApB2c/wPn1aGoI8ioJXIcaCIQOdCiGG2moRoZQLoGmzEbJQiUfImsjRV2p7iown6efc+SMkymYQvMwHgiaADMhKC+A24/Lr/4wjT7o3L+AgszSRDEiZBSkPnoBvjClBJZ3s3wOIB8FLJ/aZpMiLd7IehjVyA3R8iLE49ZI/49yLrcBYH2MxFkj+PrefaiDt4tx+9sHr9fMIFMZC6AgGuO6yg7Hj5guh7LQj0wYuw4HZ+ud9pkeS7EF+hmJGhSzHFFoyGjQSxAuk+yccwzDDGg4aHH7GOCkipwbf9RBwqTM0YfpGWw/D8R3bOzjT8JixcVwkfgk9ZiQWWvpwab3Ie5CuHWQZvrEY8Mj9F6PsT4fP/C2rvpy8W4GyvZ1NjjE4DlPFBDXn3MP6TGMlFmrW+xdhSGEs+oYhnofN0jSd671lB43FZ/7GvjonBI5vYroUOYPz5xcfil22Wgy+MwWZlZ7v1ZD8TKNS4BaW750LwBBXsAbAiLEgYZEKtXQ1fCinJClIWwuS17a7xChqMDoWMFPFPpSu2jSmH8PA1lAIBZRWI+P1HWT+aBx+0m9xzS+fRcQaLiZxNHDUwevjpGO3h5tNhalTr4OsMD4fQVbmUJi2pf9B74akCWZEcnLXZxqAOfzwhxiLs668H2ecf784aOR6CGbhYXOk6f1zeJePPG3QWMy9EQ0qlcpmWutWXrLRaPwPwH8BdM29WwzslfrSvelsn3X8Ljhy3zWhknct8Yl1Gn2zAJ/x8cRRyO2FMl4vd8IyJnM3nwtdG2jyGxySsX1ZEMwGOJ5GaiJ47FbAkIDFmEnJGhSnhiztliiCjM6kHiEolcUyRFGIl951sfaGpyDO6ZUVF7jvrhOw2vKtcNJ2oJ5KylMyLmIsLOPU0HsRdau6/N5hVmYOsZvPOFwf6llceN2jOOnMO8QJGjQWn3lE58kJd/q+v1XRhi5v0df3QZ4Lw/CGKIr+AODdefKEc3DT0PVMxGa8DEMy4Ef7bYHzjt8aaLwFx9UWeJTikTk7aCxSEfZVcDNfQg6rFmW9DC7KVNIVAZTfgtQEaJ8RY+K70/DuxMno7JyBltYyFl1sNBZaZAFUfAWnlsJNI7heA/DYqCdDkmXwnUB09DXL4KvDETlDsNMex+Lev1hbPmoI8M9nLkeIqagwNcLwp94gR3sWmukUjYrp2TSkVsORHklzT6vnY0fyQzyLy3/1JI479VapC2EuKQc41wCSp+fsW/nos+b8m57bT/LlvV5RG/mhbzB7hy7XdY3jOOPTNL2cDsgX+bWlQpzFk8KQBHbeZg3ccMk+QPQGkqyOsDSr7HxO3oOAoeM5Ionv6hAqLFsgshTCJHXptJUFVdSzMh546F+4+ue34q9/6xYJOak9Yzl47oNU24CLLjoA39loTYSmE7r+Hjw/hqZWpTEI/BYhXeokhdfUglp3Dc/9Zwq+s8NVYvT22WtpnHHi/sh6JqPK1mu8PstRC50JATJzrgSFdMXz+fyYRW9m6EO0ev6/Mf0IYzH+xFsFzmAHWdtSIF0ewH/m5Dv5uHO+asaCW0DJ9/3lkyQZFQSB0ACzLDNBEBitdUcURRMB/GuWXvLHDjlVkZb6NF8KjUbRharP5+8Mw/CoKIpe+TTXGOjPuMBbxsPCIhNJ+aUNl8GfbjwKuvG6uP7U4WQYUvS++OzPZ5sCsIN4UGkGK1HYtcxrHY6oFsOtDMGjT/8Hu+51NaIMkD7BmY0M6PxLHVuecG2wypMGbYclcPn5x6GUvAek7XDKLuIohnKrcFWIlFWbZJZ6Cl09IdbZ9FhMeBe49ZYfYr3VxyBULnRXh1SkWiKYbU5scyU0FpZEVojmzFL/+uxvzzOEM/FpDAU//CHG4opfP4WjT7hFMAsvCBHFHFHv60D9nTl7oq+mZ+EHQfAdx3HWi6JoGwBLFGpMHI4iVCh6bxb9OPmTreP6pvgA3Fkulx+P4/jFLMueADANwF6+719bhB4fa5H7GIriGXh/8gT4n+u6j2ZZdgiAF+b2F/x5rucBf8lcbEikXWkHG4xdDPffciJUxjAkQZLU4CmGD5/jLpzl5QCm1gWnqQlIfHTXfbjBojj1nKtx5TWPCWdCOh+y6hTAumuVsfLyS2FoyxB0Tstw+92P4bUptqqVEMcp4zfD4fuNg4cOQHdKty7Hr8D1AuhGDJ2yjL4EBCNw9TX34oTT/4y3J1C1fDpCghwEAHQdKLEWhFkQehpVWxermAWxZeyWDNKHYfk5huFTnfohxuK8n/8Fp517t5TC0FjmnkUbwJefu8f85llwkNh2/uRyueywY3dx9DUU8hVLG3tbxcN/0zjMZiB6pd6Kz/YNKdgRvNH45CjiQ/AL+HkjW7tZfMDjuBvA7rkxmrvf9BxczXXwh8zB9kJUTBVWWKINj951Flr8KSIY6ykWdhU4wxzcgKekiUj4knbd1UihvaEIK4vgh3ufhj/fN0EWJR3+Sgicfuou+P73NkI1ZGajBybWUGhFQ1dw9W/uwMln/F5qvBiaPPPQ6Rg9TKMS1qDc1IJ/XO5i+JgdoQFoQsMdhqOOG4/LLzsWSa0diFz4NCSG0n/WixDFbd1kDYOq2xBkoA3FR3gWBYPT94EaBX78CuKkRjfokyfnZ/zK5hdj8X0AF4dhOIo7fWEECm+hUqmgVrNqRvwdD+7oxf8v/v1hhiUMQ0RRZNWZXFfOK8KJDzMEHzb+xef6nk9jQ2PW17Phc/MzaZqePHNmnvYZv8u5/nGlcIEGjlCeDx0bDPFTvPT05Rje1I4EXQhDxxZfzrFnwZqOWDyLSGt4leHojKo44NDTcccdUwXn5Le1354b4IRj9kA57IRJp6Hka6T1GEGlIlmZeuZBhwvi6BMuxi9/+aKcs9uOS+OKy06A6XwFjluDThIkGZWxWMFZAhrsxuEDpWa83/4+hrRQ+iaDUk1WRYYyd2lNVH+4WxtdEWPhgLUufVoMDhS4+RHGouBZ0EET2ojFLPplXffLRef6rP3oCx5ZqVTOr9VqTl/Podj1ufCEwMOJmAvCFpeiEeDCp0hscRTncQFz96eRmP0ovILZgcuPe+e+51SrVXR3d3/g4329nD5eD3GUleI4Jn4yr44DoPAz8f+1hwoSvP7cFRjV1gmtumCyum1L+HmMBbMtro+6U0aPbsalv/gDzrvgSal1oO7nxWfuhd123BxO8g5c1Q1NURgWijU1IZkxAz4L6cMKOiOFd6d6WHX1k2XX55J55V9XYkTTFCjTIcQsYW0Ta9EKKgoBLxThnXDkMGTt78GYva40AAAgAElEQVQlwcptAtIYOuuGqlDGjsxND1po3ySQJ1AkePEovIvPs4p6OSefYhA/JAw57rzbcPHPnhA4I6NAjwqQpPXP80QfOdf65aL9PbPDMBwXRdHt1WrV6enp6cUfeN/Zd/vcI3hZa32P7/tveJ73n56engkApgCY8SHPyjEZQSAUwEgAq1UqlQVqtdo3AWznui4BUTnt03gWfTGKOO7TKDj3VApjReNV/D33LuQenuednKbpvPIyvgWFR7jKFEKUTB1P3nsyll+qBLjdSKIu+G5pzo1FweB0mhDrEXji3xOw5U5ni3YnJfKuuOi72GP7TZB0vCsKVpbvwFURoUH9TN+HG7OClT53hLBlcWyz47l47ImJUqF+120nYPVlA3gZ9fTKkJp3VQfbCLIknePseAZRVEfokVPB/A8ZWh7SRju85hK0jm2TNPIrxFgwlGEYUoh8Fj1b53DW9wU3e9sSfMS1PsRYHHjstbjpdy+K1CDDkEHPYtbYccMgEX7dYrfuC0gWbr5SihmNy7TWD1L0aA6/xo86LfA8L6I30Hfxf9w9+qLd9HT6YhazYyf0gorP98FQWEG42lx+j09zuUWg8CZVpeh5V50I11+6J7bceAyCUic8NwGST+IZzMZB6LuBFows04q6WQTLrPYDtNdZ4AUccuBKOPGYPRGm7QgJNvJo1IByFTpLYALK3LnC2pSshduDRA3Hz276F4498feCdZxz+vY4YLex8FIq7kiLIWiV5JkOApnsCNaAyxQw1XjIrWAJPUMj3+pq0Ish3kH+gtIWn7EFcFY0R5R3eBDb4E1Zw0LVrD7vacln1OAiTjJLXdzqVRR9AmxFK/XUWTMzK9uSf01CBOtL92aJ+kjs+eOrcctdr1jxYvJAHGW0/oprcHqet1GWZQ8ICzhPN/X9mQ/pBTPFly7sb+KT4/AR7GyYHfzs623MHl58mtU5+2cKrGQmjsEbfq0/RE0+5rkcoUkaF2Wqc8fTccnpu+KHO68BZV4THgNS7ri+VIfKeHD3NqwIZas+y02wC6coJc3vJm0PHcRphmD4GFx84Z047Zw7JO5eYBTw9BPXoDnoBhqdUKRmymIkUCm8ZsAQhGSYwDJ5xh0xUtWGvzw1DTvufJGIdx34w7Vw1snfExlAaXgmKz2nbObd0QTElMWfG72CkVp0U/tAjJU74nKJvIyetSNJAwjYlDG1pfviiTF0M0h1Br/SjHrMEIdU9DLSxMH7k2agERl01SJMnTYZkye9ilVWXALLLbMwskYnykQsY753LjzKXiE8qAYkY+kg9b6Odbc+Cc+80GHDECm3995P03SBOZlrn3TOlyUMOcn3/VP7pin7YAb86o6dmQg/95Nedm79ncZCpr/oIlo8hEcRUswOaM6N+xa6Ea7rrpokyXNz45qf6hp+yTAnx4nS7EbYZ9f1cdYpuyEMJyDuegeu0wyXgKFkkzJbi8HlJ4uYwCDP7LvTFjty3lSn3IzJUxKsuNppkh7lhL/lN0dgg7WWQG3GW2iusB6EKz2FpidDniK5HVkucyeiVGwrkED7Q/DcKw1s+p0zpEp23CZL4MZrDoUyk2ypOxmXsogdwSEs5/EjhGZ6uxXxOYuQQ1yJ3FDkHgUltyqU1YsAHcMo9hGztSxknHpeBd2RwcT3u/H3517Gw48+hfvvex2dHbYhNEtWeNVwpjr3ccesjP332RGu6REhHsQ5NkLWmBhjaVIiXg1xlyxYBG1jDkWt6K1iAfg7AJAqMNePL4Ox+E0Yht8vwMbZFuLPZ+6086KJrvmodCpDEy6UT4NnfNpvk2ELcZI+QO06AMj36P/DYwEGnWWF0Imw8TqL4o4/XICu6c+hmVUwXCx0xYnjcPsWlSqDLE3FeDCTYhe4+IQ5lTtnP4IakyU04hLuuOdJ3Hb7g5g6Hbjv7p8BjcnwfaraMgNIpSwu6kIIh/djjQZ3WoPMUJMygfFG4I32Fqy02o+FeLnqchU8cPeZUOZdaJ3AdRwo6QNA5a4iXOjbwqxoPFroabD2pa+xKKT8xYeSsXc8H2kP08guUGKjoW5EVARTw4BgAdxz33O48Ze345FHJ8pFJQjJ24eQzkF/JpfRwXHHrYxDDtwROp4BnwaK4kJCPxNBD6v9aXuxisdCz2LomENA/XEeubd7PMt4+mNifNGNxV2O42zZl/+QA4acNRsAeLQ/BuWTrhkEwV1xHG9ZYA/MotDr4YLumwotMjGfdL2P+3vBAZHpmXNDco9mpZmA6/Of59qf6lwHt8Hxt2OfCorBLDIKePSBG1EtTYYy7agwzOfEFdYU67S4s1p5OBV6MCmFfFntaf9uJSlsPQgXrmIYU24RTz5mwZjWKJUUfArfdHfZzIfE67knYq1Or86E4W6r2F0kReYPx/v1hbDkMnshMMCyS3h49IFzocxESbES5WDBmhiLHF+YNQYFtpIvPLEEH24spMGSYBPWN7EGyEAx42YSqNJQPPTkGzjo8MsxYaI1DmxpUC3ltg9AaxvwrfW+iZYgRFuLB8+dgc03XQ1rr70ssrgDvqtg0rxQj0KePsWQUyifXdhpRwx6spEYvfThiBxHcLAcQ9sHwFeui/pvlFLfLzgTfVx97qjcWeflQe79B9iWRVgkgiueJ8ajP48czGW2hlmdfjtUyTtbx9lPuMBY80mY8KUXbsXQ1hqUfh9eNhWecA9msqZccoHYXi+CTmO4IRce424rHFMAhTDsKerDzTw47GhGA1AJhEqdigegYKLElogXfQEKY1FgDQWAaKMcK7vnDhNjMWaZPVFWwLJLlfCXe8+AK54FdT7ZASzIy86LlHlhJHLgsVdrszBq/79nURgL7XhQfgU9jQilQCGhAI87HCecchmuufG/vfI4TOAsMAzYY7exWG/NVbHqyitAOxrMgHk0NmC/lQ4oJ4bSlA+M4LtBTgVnxS2NBAviYplbIvwLH2+862DlDc5Cd5+pVqlUVq/Vas/0x4T4onoWVwI4UIz7BxmOV89s/HpAfwzEZ72m7/uHZ1l2Yd+QY3ZW52fhYnzc/QsPpkjDyoShNoN1ufq15DEMvS2iOL3H4+RNY3GZd9lpHRx1+O742kgHVZ+Zhm4kdXbJcVBiWbe0B0hs6KCtZyEHpe1zQ0FQVNifpNfXu6CqBrVGO0rVEnRCsZrc/e6bTpSqT6tpJ+EBD1ncFKCMkXrD8PrUIVh5jUNFrGf1FVtw7x0nw9Usqc+kM7mo5Au4yufKvRSR55qdtl0YiaJ9T/4NSUYix2UcDz1RglLzUKTaRa0eYtfdj8UTTzcQeBCtjOWXCzD+yL2wxUarCN/DNayIdRBFLFIjizgVw1ql20FUIsp1NDKyzmkceL8ERiUSbhEHIibiqSoeemICvvOD64EPsomrACwDcS4fXzhjoZQ6UGt9pQirUKhkVttpcg3IbPwiHQSS/tT3gYhV0KuYnTo+pw89u6HgdfoaJaXUs1rrfkurlsvlr9Ub9Xe4SsulAEkjtlXbBjhk/7Ww7x6bY6GRZZTK5CZ0QSfdcJWGW2QRejMhRWRepFrtghNX2zcwrLlwY5i8I5jLzl3ka+UZlUIlW3b1XMBXtDQy9uXgteqITCuefslgi61Plih+3KZL4qZrfiSYBZFTxUBEU3GLoYvVo7B1H4WhKOxugWP0NRjFNzjLqEgYQqsUtKCz0YZ1NzgUb07IFf9mUtTPO30H/HCXDeCaDng0MlEEhk3C1PUp5sNuxjFM2rD1SELBdKXexvZEZY1SJHIAWjw0Zn+YbSnDd4fihpsfxYHH3Tk7r7vf1nS/XXgOF8eiAN6YHRxUSp2vtR4/h9cciNN+PJOZeUq9Xm+zWYBZGYG5cfO+vIyCfs5p5XneCWmaXiQrpR+PIHRMHNmMCN9s+LASZkxvyO5NDPKAvVfAnj/cAWMWGw6TtcNkXfCpUiVcBAsoCoxnlaftk+a7uuQnJNvaEP3MNGsIWYoNgIWDwJSm1J8U5xYgqQVNdeZKTxGoCI20inv/NgM/2P0CqQHZf8/1cPYpO8A1k2AyYhYuVEbaNo1FrnTV2w8tNxRFGCJOh9UBnZUNmcWjsHwKpooDdDdK+OGB5+L+hzqkmI2Oy0P3nIWVlm5FqN+Do2uWix1WARLz+LxM+zgZ6o12lFvLyOLY8ka8Mgw7TPP6eaNF2g6qgTluAJ0EMLoZrjcU5196C0655DHU8pCM8geZNJzsn+OLZix0wZDsw1H4NYBd++f15+5Vfd9fyRizZRAEO9dqtWU/qkDts9y1CGVyjOJu3/f/nCQJRXTe/yzX+Tyf9YlT5jykYsKUQ0sDoBkgNMEFctCB62IvehoLluChG8hqCFwHut6QXV2sAnEIfljqzG2XrTTHd7ySL/08lUuwkMrbXHn0SDwRmRGD0ZvGzMMDNxNANc0iBK2L4upfPYcfHf1rqT499YRtccCeq8N32JuVqlYu3KwsilyOWxccxYrX9BHdze9h6Rxsx5hClQKkjYZ0BWMYkMSZtDF0nDI8bygu+9ltOOWcR2w7Qgd4/PELsfRiLpzGJJT4W6nxtwCtPK2QpzwBRt3MEVKqgMDScY0hUi5ezFAkSeBVQpgshjYuXK8ZWezBVa340fjzcc0f3xLPIg9R/z2zyySZxv1yfJGMxY2suJytRJyydMv1y5sPwEV931/VcZwxAFY2xiygtf661noFYwzp5H2PvrzGl5VSrAeZrrXml0/2JhvGTB+AR/7QWzjAbcbBdpKpdD2MHDkSXV0d6OqqQzkhjEnhSzMh9t4AjvjxWtjl+5tj8YWHIemaSi0b2+JQZ7a7mKjpUH6L1b42M+JQhdtlwVoNKnBZ3wAvYGMiygbT9ci7n8kqzh0UMRzWYjFcbejhOP+qR3HOhfeLHbr4/F3wg+2Whue8L8+oSNdOmqBYGKZYHCjNNj4A+1gPpk8YErjQUQRFfgNlBYgpqFB6dDhuG156tRvrb3yKeBQ866Ybf4T11l0ESr+NVjoxPZDqWNH9ZR2LSpCQJ6F8eS83CYSAajGUvA5fur3Ro2LMRe0NinXEiIWmWYLrNUE5VXxz7MF4fTqQ5HVPSqmfaK37jW/0RTEWYwE8zepQln3nGRBOibxjxbxaJoP35QiUy/5hUSO5iJteYdVWWGEF/PelF21HMUnrcts0KOf6u5SCOHj/9XHYwbugpTlBo2cSwlIKHffAZ4UYe5NLNa8HxT6iQse2HA26KlnSJfq8lNWzZeUFzboIQ6y3zeyJFxIcLCNOh2PvH12JP939iuAqd952PMauUELgTIFxGhLaqLTNiuyK1FbefpAXKl5sdu9FuA1KwpiUwGtYglNqgq5HiNUw7Lj3GXjk8WnwMmDn734Tl1x0MNxgGuLuCaI67rgjgQYHJW9ToLuQmoYYC0qQ+aYiaVeSyizNP8d0WKNCZVES1aSXrIEflpFpsl7ZHtLDkssfjU6+xawiye1mx9Dm5gz+QhgLpZTWuui0a8vIHcfZOE1T2z1l8JinI9DWVlqks6PxJh+COX5iKEsuuST+++J/bdtPhiEEI8m6zis++WvaBP7+iMOWwne33whLLLMI6tMnwVMZfD9A3GggCLhYPCAmWMlrkRZt5bbZ4EhKJ6SqgmFEjiFY82ThjyAAIoOMNSLuaKy6wSF4faJdck8+eg6W+FoCl04ZNTP527TJUsWFMU0Rm9xgfJSxkBJWS2EHBX9Tg1oHe7JW8J83u7HuuAvRSIEWB3j39ZvgpK8L/8T1mOAMkSZVmCwQ2+SA/WB7pEUBXKZwmYWxlHUR/xWviRiPBTqlZ6qrUI8jlCplMPlbixQqleF49bUpWHfD4wSviNhP1bI3+0XHoph889xY+L5/UJIkVxQYRf7ztwB+ME9XyODNPzACRWVHEHiIkhSLLPI1TJ0yESl1a6X1ILDYosCii7RhaGsZLVUPlZLGyGFNGNpaQltrCRustwbaWpss54Hegq+Q1BvwRVQz31Gp4k1vOyyjW1Mw13oArvRBzZmgeRd0PmAWZ/BUGWFpKLo6Ayy63OHSx3SxxYDHHrgKVUyBa7rF/Rc4QJdh2KiQeIVijiWnkBdv+4EwxNItdRIhybQobTXiTFTCgyEjceD+p+L6P05DnAHnn7YF9tl1PfjJVFRCF1HdICg1sxEafD+EI82V63DZc4BGgDqAFM0MXRiKCPUaLTJhOTiUJSfO46KRZYiZJQmGoB5X8ZeHn8fll9+Mp//RIU9ftF6ZhR73z+Sd58ZC8OU+zMSZJdkmSZJ+Q3T7Zxjn/6v6bmDoKrNArFLx0drWjLv++EuMaumB0tMkXRqWFDyX2pwkZdVRrQRIpPzbQ6OnG+VKgKwR2UJNnSHTCXx6BqKkW7O6eE4LUB6Bel2h3DYEtawOrWLbNJiMz1xNuxAV95g5SRyoTOHhv76AbXa9XPDKHbZbEldeeDqCqAOeiWAUxXs520gIU8gU+5NYohZjEJW3UZx9QTANXq5Whb4usn1eFdpx8O57U7DiqsehW7qkAxNe+x1awmnw0x4oYbM2IU5Yg6fghb6Mg5OlKItSXwNOkkHRcPZ0wPFITKOFZKGILbArQE7jhogyD+9O68F1N92GS658SRIpSV6ESqMioj6+3+/rZl4bi/08z7uaBVh9uAMHz9SRIClr8PgCjYCC+3PXyfZlGMKD2b///uNujPReRzXokrg+7ukUfklYYhlU3otULION+QlcFilDmyFQ1oXmJqo6rUteL2PK9ACnnHM9Eq8J2nOguajFK2BWpCLl3jQWzFYwYuH88YyDNydOwSPPvi1RzSorLoCVlx6Dcmzgs1mRY4Q1SR+fhkJ7Dfv/qSouosN2KXywDwoLtrQUx6XMzLDzWdiEGZ3d6Ois4YEH/iOiWkssORJbfntN6JhoY53wKVwTwPFcxGkMFfioJ9Ra9VHixhhNw/JLD8P222yAEotKfY4FMRWGKSy3D2CSEmqRi7898xJ+cf0f8ODjVg2gzu4GoYt6xKwSvTFWo6asRTohjuMz+3PKzFNj4TiONobK+GT2GaZ/zEyhl0Gvoj+/8Tm8tgdvAyB9iLaCITyB+SsuOBT7f3dpoPYaDJW+q+QRMC1qRMkq6+qEy1JrLkRK8wlZjdKBXOmsovKQSJqQLvpU+EEZOm7B+1N9rLTmKfkykO6F1lj0yRkVJWVCYWWYz7orYqzCYcibOcdAmBdr9X1taWGUJxukuVmfa/M+s9AzW+TJLK9AIzHESPGRme3l4glzSINFYTyYspUi2TwmkPxGHnHQYeD1ie3s8v1huOSnx8M0ZiBgUxZTh9aRzRS5IeK6gxldCV74z9uY3B7juX+9hjff7cRfn30Hk6fzOao5f6UODnGSJGsD+Nscfr2f6rR5aSzWcV33cRqKPmpRB0VR9LNP9eSDHxroERjlAJP6chx33X5d3HTZvkCdnQxIPOJOXbb9QfnBjKzMvD+gdPJykZJ8pAzcUinnLrBCk5kAuuM+srQJEydmWGfd84W3kKtN5MIyvZSuPHiw8TqNCbcYLsokYmChhW5dTG5WoDKbUnAvxVjQsOQYqdC9+PfcUEiWtuCO5dkdpmLJlRKPhlITCZm0HlRPKsV0pHYTr5SkBzOfZLvzG+pj4PqWqu2262icdcaRcHUnfBPl6lv8hEWM6QnZYjcfip3imRj0WzC1O8Vjz03ATnucgyQJ4bDnq9US6fe13O83+JgZTcWrDQqvolKpmFqtNuhVDLQJ+Pj7KbdU3TlLaycgM9+gR6GMD5NSBYJp0gTvvXQtmoNJSKLJCKg4pVqhZ3RBcfWxJyDBRYYBWQjHKwEe+5eypJz6EkwtBkiTHhinC66vkOoq4rgJzzz9DozTDON6sqiZuSjCBBs25CvccaQkfMKUGON/cgFGDRmFhRccgmOP+T481YE6EVhSwoSQFcDVrIpVSLxUGhCR3yB9xsjzyIvUGJ5kioVvLPb0kLGviVJI2LNEVfDgX/+FX/3+YdQ6e7D/zptjw3W+Cb9MalgkRkYJNySfyuzQ7lEc2IUvIK5GI56OocN8LLfsQjI+7CgriuPCJ+FzEMizgj80fJbT5cLxW6DDVlx5wz0Yf/o9bLNiy94V1bEk19qvxzwzFhSQKcRjcrzivJm05WP69W0HL/5pRuCbfogDkwwHCsslr2gk5ZjJCdoAjylBaIQqwSP3nImlxwRoqtbRM2MyKn4z3LAMQ+COmQx6FsQi0kA4AiRage2Wowb8UsXGA1SB8rstaSlTSOIAfvMiSGqZ4BV2Uee9T6W0PXfzDblKBqXmr+OCy+/CWef9XlK1Jxy1JQ7e+9sIg5rgGharoKGzbRJ5ZIrXnlWM5va6EracnsZCFi25GSxm1AaOqiBzWnHaOdfi8msek/Yiv/3Fftjq26tAo45GUsuZp1zAnm2e5Cmp9UjjVOpgmE1iz5Us60Cm2aZAw9XK9kwl2EJjIW4OQdnEMkjdknXSKiNR11X88OCT8Kf72sWboiGBwTUUQf80X+7n+cw8MRZDhw7dor29/Z7ZHnzpmelSdvgaPAZ6BEJshsg/CTDrBOVUyhd6g+6C4JhL/ofclbWCG3jIkgaOPXIbHHnYTgjUNGRJJ8quQqNrOpqq1rpoTZYnXZImZJEFGIXxnTH0oLYEaY70/6fbVoH0870yNI2L1I2wyCxvlCzVpnYDVTnzU7lNqDVasePuZ+PxpyZLSHDHrcdg7CqjRUCn6LjOzId4JiwkEzEdK55MsJTAaW4ZcpEdwrO20TBdBUWNjpQZiyoaWSu+v/tP8PDTDWY98fCfj8KyyzShHk0XnoTnh4KfsIRcvOYiTUyOR44OO2RweZEoXoncX1E/I9T2IjaKYci9cA3SRgavOgLd01Oo6sJYbNn90E5FQ3lIefINZ3rpD/f3tJknxiJnmW1TlFrTyxgIN6q/B/PLdP0qgl0ixONTFyt4JRdpj10wjsPKSM7ZiiB7ImKDRPSaioO/TRgHKGDN1ZbE4gsPxdJLtWHbrb6FRUcPB5IZCLweZMl0+B5TpClKfot4GFnMEm3ey8A0DBwWdrHHqe4Sj0NWWrkZppHAqdDzYHVo4VX0Vaqi4fHQ0C7enORh9fVOk+dmZ8LX/nsVqul7CPxcs4I1HhJ2kA3KEIarOXeZRLVbtPlymjf/ZtOXVnjXAhGawkZeCxrpUKz+rYPx2ruW+PXaU2dgeOt0OGymXPKhG3nY4LCrGtPCzHNGOb2d4CsBYP5/GgvGLLYfCWxlSV64lhfNCaHTVqY1Io2g8jU8889p2GK789DNuhGGV65UZg/IOh6Qm3zIItJMgZBfQU6/53nnpmn6ky/TYvsyPqvrutvpDMcomDUok5eR6BQ6iGOm+jwpo6Zh4HzmUfQRXWnZCtZbZ3ksu/xK+OmFv8Yb7/WgQ9Sk7dzebNO18ciDT8i8/t62S2K3722FddZc0oYBWTu0rokLzs2BrQNNZmyJNtdHsatLPRcBUsemGkplpLVueEF+E+tPzNK/lPDCg6m04qobHsD44x8QcHH3XZfDhWcfglIyBYhIhqZbT8gg7g0trJw/b07V7tDyN6RCNjcUNJG8tqR8meGlApqGE7SgK2rD2PUOw9uTrE155/nz0VZ+z1bT0RHpiqF8thXIIQRaWRoH4cpbxqakTOhF0TBqq2Nhu5/RgHFgeW5odYlNAi2M5hK0MwyXXHU/Tjn7Hikey+QborvS/3iFPOI8mPRsRsxv0X79lpC1BmtD5sGzfAVu2byUcp3jNBp7yM7NtCXnFw2C68BNbKeJCjuhcfcEwAhis42Wxtbj1sGI1h6MHGEwo2MiElPG7//0Iq797Tvokc1PibFZcMQIvP/2JJn/OW6PRUYA+++/GTbacFksvsQQZEm31D8wV5HGZDcOsYvFN0jrnUJXpvNPlmQSpfCbykh6umwTYx6y0PgfF78t9kqdEDW3ii23OwLP/cNO5vvuOwYrLtuMJkQwtU7BGWzbQQKWLOCip0SCly1gM7mehS2nLwrIOCIF4MmPMaMTITUeOtNmjPvuCfj7vwFGRy8/dToWGlpDZrrhSX2MC4f9tkX1O5FGTFJEJvldPjZp3AR+mVqhJcp9tl590aKlAJXDHMQmhl+uIkkr0ltl0y0Oxguv1KwmgQgip0fPZID9dCAm8oAbizAMN4ui6L6ix0f+kgP+HAMxuPPyHr4KD0q0utx25bE7F/uJGoKJ3ATp+fcAzYwmDDB6KLDN1qthtVWWxJhFR8DE3dDJVHj6PZhsqhRiaX84XnrLx8HHPoce4pKkZuet/FgTQoIRDQanP5GB9VZ3sNWWa2KHHTZGqUkhjXrg+QGyOIXrV4RGDa8hhVJ+yCxIAp99OyjQUe9Bpbks1ZbWWOTgCRmYDBHouDtVvPJuinU2PEnW3vA24Nl/XIKSNxlBUoPPXCpRQMECrJangIa9Ze7WCAknougDUvhUhju7NUqGLpDqQeZ6SP1R2Ofgc3HLne2Sjn3uoROx7JIhovo0hDRsKQvkWEDL/iYZVEC8xeqz0lNxXXoyVhW+YI9+YJ7kWR9T3N930N0wUOFwvDEhwdrfOkK8CsPwwxp9yv4PiFzBgC9SpdTxWuszZpPy7/e0z7xcuAN17zAMx0RR9lNAbyu6Mdy5jZJGvzolG5G04AwZkTEFLDgE2GbjJbHu2CWw2OL8zBQodIvWJmXoXfa8MBl8USxLkHjNaE9bse9RT+DdHkhRk5WsBVrKwJhFfewwbi2sPXZJrLTsImitsuScoi4WD7A/ucxtDxCyl7TLvIr1GARslIVNA8a0YYosTeCVAhuaUJS2EYnBUV4JtawNJ5x9G35+zZNSwHbq8VvjgAM3QBpNhOdkCFlfISkDgq3kefC9mWVg4pfydAy7jC0R7212zH/nHchAFfAMie5BUM6Em5G6I3DOxbfi/Iv/Lur8t/9mf2y4zmIwugOKknkccsn1+rbhNnUqioyOVK+xJN16SzR5jhgivjA9qoaEXaTCyCsAACAASURBVI5bQlxjhWsTUvItvArauzzcdPODOO3M24WsJhwwXsA6gwNyDLixcF334SzL1u/zdoNFY5/zq/aBPTRwvYbneF5JhF0JCEjRIpcnKcKsAmUxpwuM23opbL7JWlh0dAsaM95CS6UObd5Hkk5B4LM+YWb+Mc1QUhWoiHXiSnQjG8ZFVBmGa3/3NG64jdWOyjIOTYrDf7QDTj5+L7jZBNR73kDFIxpAm1BoaebCNQW4yPhcEfGXygzBDriQrAfB9ZNZHIFACPX1uDLJ42A5t/JQjxW093WMWuwQUjdQ0sBTj56D0QslCMo11LrZWtGDR5UtZkDSHBtwaxJWpKx/N1TmtveyIUgh4lsYCw9kd9HLctyGdEqLTSueen4axm1/mVDNj/7xWjjqsJ2Qxe+jEmrRu/ArTUg7Y3g+9Tj4jgRXrQiHkmwMU6X0dBgOMSdKTc4UYXMrGrUeGB2g3PJ1vPHKBLz+1tv49a134c7/60Q38V8+Ax+Vw2pwERIc8Tmnz6c+fcCNxezl6DO3nJNm+oinf+onHvxgMQLNM5UgTnWhDi+73GVrecscUheZwjPIEpvFYA+czdYfgi02XBGrrrAA4tr7cHWMpN4N3yPUGSPVXVBuAr/MqtIakrSBil+BlzUhriWoVhTqWYys2oSXJgQ44LD/IEaANNewXmW5Ubj7rmvgZP9D4ExFUzVA0jEDPjEDqWHgUQCIReoy50iLdF5J8IOi9V9vi0CeFtcsgEidSpHbD6D8Ntzwm8fwk1PvRL0ObLVuK3776/NQ63wZlTYPjbgmpfQ0esKtSKhjS5IIK1CpVkVyFtWqbBqW3dGtx1NgGdbTyRINv+yLwWDNRuYOw9TOJiy70o+lKdKCw4BnnroG5aADWTQFPrWw4gh+ZRiynh6p47Cd1CzJi4ZLMix855wUJvf0y+jurqOpZRTeeGUSTjr+YjzyNzY4sFQXVvCzHF3Spaxco2eW6sUAiHTAQBwDbixc19WzpXp2AXDzQLzs/HCPIAiWTZLknJlCveOI1JfpSaR5utPRMpl88YWBZZYCttl8dXxrrWUwqkkh6pwAJ5uEip8gqlnwkOXmJMWxNidOIyvQRMISDYcK4WUtiHsaqPJ8XUNdafRkY3D00U/j1YmcyORQaCitcf9dF2OVlSrQjTdR9ln8xbRhDkzKTLML0UrMkaxVqOnwj9z5C6OSRyvihZDL3QCq9A4on0fHvQLPWwDrbrQv/vsmQGjjtusPwVqrLihCvFE0HWFbBY24DhHbp7FgfxIOitsjRDGDsNdYWMOUczmE08GDhstDGmn41TJQJ0AbAN4QRBiBY0++Htfd9KQ88R9+fwxWWXE4qqW67f/a6GGRiuWf8z2F42Hp20K+KsBaGQ9yLhxEcYaw2oKooZHGDMda8Nxz/8Nd9zyB637zLAW3JPxw/ND2aGF7tYwmZOCOATcWsxeP5c2CHhm4V/5y3qlSqaxcq9VoVEles646KzIJcknTGxKcUvEkRg0Hzj5jayy5qELW/TYCtverKXipkdLxcoULlvLyrNNIJcSg4FVMliHB+pDqEbH8znfaYBKN0Etg3FS6lWdqMfzxjg5c/avXwBrLDD4qTgOHHLA1zjj1e4hqL8FE7QhVJhJ0Vq6/SAkWatq58ZBFyiPPPhQzspdwRNAwtZ6FGyBOPfilBXHLH5/CAYdeJ8ttycWBR+++COVSF0y9BqfsoZF1wvEceCnL2hmKWL/duCx5t71NrWdRkLwshsKQwSiqaRPN8ESCT4lOpvX9a3UDrzIa/361CxttfoI8+Rabfh03Xn8Kou7XUfUbUkWLugaCUs6psPyJot+IlQjsUynCeFF5qMV1+KEnnoymFqnXjMS0YWpnGauutx8mt+dYhXBg0lNmQrynDuRsHnBj8cHSGnnVpWa2onh1IF/6S3avbQHcJonKXDWcCt91+t789nJCIpyZzTLjWPZnrqtf3/RtVP030OxPR9LRgaGlhWEST7J2tagbpUqArtp0UXSSfdQJpLENkycpKLaSSGbTdZqkEY7JarbfaKiQOiPx9sTh2O+wh9GtgEhXEaCOiqPx3xeuRGvTdFQocV+bkTMuczxACqOIFcwKNwQfkXA+Zy6Ku85OXHl/DnGVfMRRDdorwS0NR2xGYLPNDsDzL1v9zWuuHI9tN1sKge6Aq8pCAkUpQSOJERJoFBo1RWYyZIKTGKkVYZbEsryVCOvIglaJkLcoqstF7ZKHkbJTh+0zyqbHDV1CT9aEI44+C3+87XlBGO+5azxWX3kk0u6Jop/h+1W7sm1tvW3oLG0ced++Mn40FPRAlIy5BX4jGF2DGzQjTofhxTcirLvpWfJe1LGwAGw6DED7QM7leWYs+mRDliARbiBf+stwr0qlMq5er98h+hBhCPZ6nS3dLF6uZVtyHgZWXIVQoQMcediS2GS9BWAar6OJGZAeJQ2A6o1OBCXqLCQIKmWr8ZhZzQdHO9LgRzQcAs8qRifUjCAtOUbKDEW5hHpWRqJG4cxL/or7n7bkIDdLBdD8/a8Ow4brjAGSdgSguK2obQIOjZvVj7DMDqp1F+FGLs3HCkoRqbFdQvg8pE0jYK/XSERgUBqFm25+BEce/UeJ5Qk6jl3jGyin7wNJt7jv1O00QSTpypAal8aTzZz1HtSy4H19dkPrVdwiKUssGXTuWYjBMdazCIlo1DqkRWK5pYQaK+q9KqZNzzD5nQ4kjQRrr65wy83noa1MMaAG0p4Ens/wLud39Nan2BoVAVT5HzeALEZsDIJKVcJB6SviOaj3kMz6DZxy5nU4/8rHxM6ylxMdJEGFB/iYp8aC72qMGTQWfb5013W3nqkGfnvRXKkwEIVxtbl526ktk2wB5wwzBgQqubRSEV9Zdyxw3JGboGregGc6ZOIz1i2HPjS7fbNlXkaSkhV/8VmgxcXJYi9WjSkXDSpxM/1nEoQ+gcUUmeuiRiJXdRieeL4Dx5z7lgiy+BTezVKsvWob/vJ/v0St/WWETh2u9McgvZnS+/QiGLMHcJjKLFoRCvDJjdwaC8tktJWljgrQqEcIqvQYKpjSBayw2onoqZFnwb2agC7Fb4AwL6ySPZwkSW7YOatb/AYaDGlSZPkg1jzYI2dx2CRv/jn5PWGO3FuTLu+EQbm+aQRp8xpAM6GMmfc+6YRVsM+uWyKgZ+GUkDWYkZJ8VG/VbO97yeTnzUj4sqxOaSZNwpjUlDhw/ZHoqo3AUsvviQ7CPzRuFtbZB1n/9DP9OPsz4MaCdSBFt658AQwaC/mGhoxTjrpDGwrGMJPBwiU7oTxPzWo8LMl1A58l05ruMictlZUs34FH4KSycH5xyfpYesRUpNEEZCHTeD7cKJDIhSQjXp/1BdzpmaG0IjC5iGzeZVw6t4cB4noNXuhJabk2DoKghGmNodjjyKfxzlSeF8AVV6eO+26/AOuNbUXS/RYCkYhjmrRugT4JQwg4MjvBh9Wod3eiXGmBzmI44oGQQFa22YQgQJqS+1mCCloxsb0Hh40/Cw8+ZJDQRio2DLasCSYeuJopyCViNJaBLWNYKgF1Ri3UBmaPodywCKuDhiY/R0xvIVbDUg6Wpefq4lLgqay+jzhHNCQJECgrl3nRhWti5+03RVbrRNVtklDKJAmc0EXW6IQbcuQdxIlBUG1FWmvAGAc+S9ip65J0wSsl0mgJbkVCkAcfnoJd974YZJ2w+4p2swHlVvQ1HgNuLD4Es1hyZhOh/w2wR/XFuZ2H9V1HPZQlVdnzXBWJYlLRxEdgicBFnGQ2bZYfwuOh0hQ5CHYflp80Ga6rKY6Ng3ZdCHtsORqBmogeN5ZMQlW3QlNV22vQt0BGynBuLITNmPMcZA05CmG5jPb2dlSrzZRuQ+eMdgSeKynXzB+Nm/9vMi699i15tgwhSr7G9lutght/fgS6pvwbLcJmpmdB5mQOchoXTmaNhSYPwRhpB2BMBlUm0pp38GIhlryfC1SGo2tGDdoPocJWPPrYf/CDXa+2qUVtKRjkbZ112iHYcP2xCIMIJu2ygrw6Fte+XGYY1hDB3TiLbTVsrEVngrL8DLtq1MpkGJS3IUjIJfFYodCGydNS/OiwE/Diq+/aytkU4Ftsudlo/Oyq4+F50+GkXaCooMp8mxmlAUvqFltSNsxjgyKCx2wrwJqcqB6LN0cxX+3MgAoUGmkIvzQGm25xJP7+fA9i6fHG6yXX6wx7zYsJPC+MRd5Jpfd1N5hZYvuVy4aEYbhElETsk7ocd6W8/Ya4vGVyj3IiVc53lEVBBmGpWkUUsebASscTpacnKzE+ryOy8HbHW25h4NJTN0TgvAX4dZndZVWBkyR299UJMtKGHS8H/HLXX/gGzJakAqS2tLDXRoBGD5W4fVQrJXR1tCPzhmNCzwLY/6hH0RnbHVeWtgJeff4XWKA5gkfKOCsZJA3KTEOfak+aOHFnAuiYQrop3KAL2sTQiQuXK5bvnWppZci6EWr6NeIEpfIQtHcanHLuVbjx5jfEYIhOLoAdt18fRx66Fb659FD4uh0JGy87Pjy/jEaSChu1VGbHM+ZxuHA1IqZxfQduYIFInXGMCfgOQ2ZG4Pe3/hU/PuqSoi4U7ItCL+bXV+yHLcetjVrX6yiFLDgTNRorDNxoSJ9SAS054Kz9pzGuNNl/SwjClgC5zp+iz0iGqY9aEuLl/9Wx2VbnSPjRIHTteUjS7gVnNgef9JUxFkopR0A0VjkqtUuWZV8lngXxsj8D2NjzragKJwuBRu6OBMSbSsC231kEm226Me684y/40z1vIqV6vDSckWR7rgKdSeetlP544bIV0m4z5emrBrjugg2w0PAZKJW64Oi6rf5U5B4QyMwsE5o9NoUslMc97I5FWrRD2fsq0sxFd6dGRYq/XCRJhJCRhFdFTS2Ay69/ELffWxMegOygGXDsEVvj2MN3A+oT4Jm6reykZI5cV5hF4tOz8bGh+Asqgm1E2TvwQw3Pa0XancJlg2zGENSxkxhBwcRsFswOYRXUswAvvtaBH+x+NiZOgahZcUWzKflJx26AvXbdHM308rMMab0hrMqEdSMBC9pIr+b7GJGui7IUQcVDFMcIwyoy04R33gaOOuZ8/O2pKWhwfedIy167rIbTjjsUTU0JUHsfOuuCGtoEdHQhSTNhcdLV+X/sfQecXVXV/br93lempSe0JBQpgogUQUAUBUFARWwgfnREpAsCgoCfCIReRIoiVREBRQQRkC6odDBUSTC9TWbmtdvvP2ufe2cmEQWSkBk+/49ffpMw7753yzn77LP22mslWgjDsaQfJoozOHabygO1DM1mQwohQh4T4pou4r5EnRJ04JgTpuCGm1+RjIJF8cwwZqeJP2EoAgW/c0gyi8HBYglJ69Q4jv87GJw6LtcNHGpqNsJQ9SWYpGXndCRug/f4bBt22WkjrDuxDL/RLWzF51+ah+//8A00GCx0akFakqqmMR29BjVLqv2I0nbJDHhI8KWdbRy679bw8Ca0pI/qlCI6w//YKyLCMlKmVPtpAeN0tnNHiHUdDZ+6Dh2ANgpZWkGaORIsdJNOYGQ0lvHm3BhHHn2bfHeQi9XyWl586tdoqzRgaK1+0RmdgYhczVyZKuCElZzehWm3UO5YhGZtDmyjDSYjD0ECZgNRqNraReiSXaRiGgJGLU6kZlzBlT+/E6f96E8wXKCRS0h89MMuzjz5CGy50RrQmosk6wKFhXu7gTKrQotht7UDNSKiyh2Me5B6ZOHaX96Hk077nRxDnIPXNLoNuOnnx2DTjScibi0WfEhj1pD68FtNuCNHIarVYVGLI40QM1OgWnfmotUyYBidCCNN/FI7RrbBD3qVVaNwSBIEYSw9IXMWNrHN9sfK4kC5wSgx0d454jPdC+b84b8pWNyuadrnCpDTMIwrkyQ5ZKhuwCr5Xh2HGg4uZzciVz1LN2EaVURhDS7LcRawzVZd+PpXP44Jo1swsnnIgnkwzVi5dIcV1IPVccW1D+KPD4SqoUlkramRmyvVFvp33APk6kv8bO6pf3XNpzBCfx2I58Mqj0Ddj1GyaBCcIsskH8irFLoQllhijPUUkeagFVdw4MHPy/e1tQH1FvfaCsjn321HCdk2WpCVV3IGYgApdUqASlX1vRaNngWQyp+c70waGg0gaAE7frINP/7JUahUQgQ1xSCVkibb6gOlpQmT/IUkxwE4wTNkYpPmITO78NRL83HS6ZfiwcdpS0Cwl2VS4MTDt8Ux3/o6bCdG0DMbDvvw6VLmxAiDCFpUgpaVYXojMfWV2TjxjAvx6F97JZvji4HiWwd8DN87fl+Y2SKYegO6oysQlsGHW40W/UgBu6Mdfl+vkNtIDONEh9aJSWsfK/eD96prBDB/AeC5aifCXQk5XPz7osVAI89iWEwq0saJa6+PWl8fmrV6S0OcZgnhTmZhZhoEQWKaZhRFUZwkCb10V3ppdZVnFrquH5ym6RXFJM2rIyv9wlZJEHi7L7HtjfQkez6lC46o47to1IhpMwm3peNww7WBk77zRXS1LULJWISy3kDQ1wtHr0jZMtZa0vTEBqbEHIMnnnkTP5ryqghpc/oEqKiSu9aEGG7mKCgz/UJb4swTNsXOm6VIwzcROlU0A7XtsXUNNsVihe6sujAZeyL5XgsR2tFdr+CAQx4RTKBwvxIGtpgkK6ylqDAwcMicLnLWXPCp/1lzlcx7w4psigOw+LP1Zm24664pSMJZiGotwWfSZp/gB2aVExLImiRH6dC4DwpDEdMlYGh6JURchl3qPti44/d/xqHfvLVfooIJRXsbcPll38KOn9gQGhYCUQ0at3A0KG4bgUbg4Ipr7sGPzv49miIYocqmk9cErr7yBGy8wRqImj0wtRC2mQgQzZtMUJTVFD4vaRArPEhMSwIpzDY0gyrW/sARsk3ir+mXQjlSYlNStqX8aKYyGNllcuuRV3REjsO2kTbVcxJjpYRbQQtBHEgJneBzKHqI4qj+nlhqrPJgYZrmDkmS/ImZxSBi1io/j7eb5yv4e27Cb9N07CG4HtN+Q+31TQ5sTsZYNXlNmgCc96Mvo2JPRUlfAL3ZRNUuIQqo22AgRFPMajJ4iOAgMUuo+2245Cd/wsNPqIDR4n5Wi2TApZEOTSeNmeSjVPxGP7YxMOWYD8HCDPSmhpTtmvU6qiUPGt2x+kVfVJYvZoGagxDt6GmUceAhj0qnI4OF5agSJN832MuD/+YCzx0FVadl8BdM7twXWDwzBknyFzwH/qRT18Yb6PjjXRchDubC4f6KACCXdOpecC/PcyXewmBhcCIGUsJNW75gDjGzGceU0mScOYiTTpz4vStwwy1TlWNgjid+aa81cfhhn8f6k8bD9Q0kmYWXZ8zCwUedjRdfBZq+ykjICv/uMdvi0AP3QNVpwUAg2AuzJt2iQXFT5AUpwpulgZDiLJ1l7NyB0LDkXCy3E82oirXWOQLcSfW1VLAtCLhyiXnbOTOLJv1JpOcmLzvzjdLdr4BTUtVsPUPMKg+ZJoLDKOCY+Eccx6QnrPQFeCgmaTuAnn6SkVLKImgzewUn6LA4vFzFsY0mzhUsgauEAHjsLdCRyqRMYInDlerj4Op/+H6bY89dyjD8N1DVbQSNOtwqmYItaDrZi+RVeIjTGEHWhNc+CoubJTz19x6cef5rqPtKgInVkFZI/NQW45kwqsmqX0mAWy/bEKPbehCbyqvUc1zoBDhjCiIonQkSvYWaLMxGgmxEPap4/C9TYXsjESamrGBNvy7bD5K4jJDApI1Az9DTtHHJ5S9KWwTPgUoV/Mybb7wAnjUXPd1vwrUdWOSNhFSQYp1ELZ+eZqPsANttubbCVoIEBo2IyTmQUUpqNklk7ODMQAI2G9Uojyd4aWJC5xZFDEGYYXCvZIhAzoOPv4JDvn0Z5uS9FZxGDGoXnv1VfOkzn8e1P70Jp5/7G36EBBR+30c3N3HBWcdjo0ldcLKGVFRsGhhlGvwwgEkii04BGlvun4EWdD7wZcV3mcKZZJA6+MOfHoVudyLRLXbYwCRrM9MoLIBmkEKzOjBnvoajT7hEgodus3rTIgh6emrgF1ZqVU14ZqWjw4yiPrNcdjXTdDTf9zWWfX3fzxqNRhrHMf88vLInxFAEC0a/NIpI1O2X1fsagF+s7ItblZ9XrdofqDXDqf2gMclUkqbT/5OrHJF9lv+YPbPWbwlNuN00occxfnnVDhhdXgSt3oDjZPBRE6ReuhKCDCXTha5FaPiLRWMBXgf6gjLmLirjtjufxF33xap0qOloZTT/5YsyehEqJnDCvmXsssMkGFaANAnEj5PmTgbLKXLSDBrKp4IvpTFhouUnaGsfhTQz0Fevoa2NLuTs/gwk5S5pbWgFKRLXRGqOw9kX34V7Hwol4yHEqqGFA//n0zjnzINgagsR+72IwwY8V1kQRhaBVk0U/7itKDvUrghzM8+iQ1VBwSKLZ7RUK4kwQamnEUBnUGGEYg83DXmkdOlL9hNS+q88FgsWe7jkyltxwcV/lHgimRGLN9yFcI7ng4XUjhO/uxu+/c3doYVzoIc98Oh6DgtpM4BOcWHHgN/qhW6w76SiDJtJJhOvUoKdTPFyuTx+OAcCv8xkp6suwl2UATAMXUTGs9SE6bUjxUiccPKP8bPrHkdMBm1KpY2I5zYk83TZ+TNUJ/GcbdsbM3XidsR13et83//GqpzcK/W7LFwFTTuQeAHJPYamqLsC4FkOfFYPZGXkoqc0Fg2H5jVUo1LN2fvs4eGAr2wN3Z8D1yNZKkCt0YdSuU2CisepZ5mSbkZMz8kGtCl044jGwqN/nYWzznsdTc41DfAZMESCn0zNFJuvCVz0o09Dj6dDj3tgRxm8ShkNalTwfHKHcgVA5hksG6ks5VvK3hSSmvgzDhJpazc0NniliLIEZtVGE2VMm2fhsGP+KhOi5qseKX7m1KeuQ5vbi6rdgKuxTTxCHLSQcV9DzCC1oFsmwt75sIn6icqVIpsogRxWa2JovB4ilxS6JYU9iYWibkjazgnJLyR2E4hPKnUzM7jItArc0hg8M3UufjjlKvzu7n9IJiEMWAPwEuDLu22EYw/bGxus04U0mY8sWSwZRFxvwGRp1y0ha7WUoXLFREb+R8Rsg9ErVyEvjIKK6hLPJ0uRRvQ8dZAkMYLAR6nTQxRyP0fzJXaXljD11UXYadczJLuJJTOzYVr6EUHUd8lKHa/L+WFDEiwMwzgoSZIrZUVTPqc5tr+cVzFEhxmOsXuC5Leyt/QNMZbRkhDMByiBUPGAddYZgyefnCfAlcP9PhfNQi83B7JYvaQW5kVnbo0NJyWIw1nQrVQWSCFZcZ8fs9yow9I5kTKEaV1YiCy56XYH6glbmUu46toH8SixDIJlXMUMHZYZwwuBC8/cEhusWUOH1Qf4iRjUhKSW9+MPdO7Ke0/IZ4COVhDCLZWlrMf3l0ptQpZqtVSjluvaCKg34QC1QINZnYQbb3sGV984q79iw8ezz55b4GeXng4jmo1mz3TpYXFKFjF9tU1LTPEiQUz/kBz8SNgrkfdMZZZkP7QqENQy4QbOlNIpndmNEr0/U6S1brlhOllT1MyMUuhGGWnqIkjKmDU/wXdOugD3PjxT+AviOWQAzpJ/nPadvXD0IV+BEc+FjgXQ9XquvcE9nqvqwsy8bAmfKiOLPTX6eF7S45IL20jZl9uUWBoA2UhCsJN+rkkcwnC5bWhBsyvgUtAIdXzz29/H3X9kuVyxYU3Dy6KkZ6VjD8s7XYYkWAAYD2AWwRiulHnA2BAA0/j3y+t2aPicoiZQrMTi+kUnC0HQv7zXCHzikx/E2DFVzJi5EDfe8Die+IsCtrgfVeqL5DSoyy2lwEc2AH546rZwDarKtGBQ/i0hQchBmpgIA0r2u6Iiret9IieXBJxkJfQmEaxqF8K0hPsfehWX/XgRGpTSzIEzTq19vjgOh3xtDRjN1+Fkttz7jBmO6GEop6+ipUppYFvwyiMxc04PRo6diO7FLUQxXcWomM2sIUUS14UNSTm4UrkLtcBBd6MTx51yA+b3GkhE8j4WY7Lf/fpCbLnhOHimD41+IMJDoLu4gSRghtBAeSzQmj+dpHW4lUqu3KmcutjwpjOrEoxCaWqmWRMJT5z9MQw6Ug3gPiMAuHI7rKJU0WhVcPNvHsNxJ/9CdY7nz2GddQ289hohXQXQrj7awVWXn4KtNxuJNJgFw0zRXLgIpY7RKk3i53o6olYfLGZFcc4FKZip0lOjsiFxQtMzaAa5KdxulZBELspeB6bN+AdGjRuLnjCC7pbw5LMv44tfOUf1obBKEpooVTt2by5e+LvhMiGGKljw+sU7pKiKWJZ1RhiG3x8uN+bfnUe1Wt29Vqv9lr9nKi6mznEs9F/2AnxwMnD0tz+D1cazpXyRTCaubIYxAS+/VseNNz+GJ55KlRidBTTY+OSZSBsxKksG2fe/uza22bQdce8sdFZ1RHETGQFBzULG1ZXGw3EIS2uixBZyX0NqaNAqFub3dKNU6RQC1cJFJVx6xcN4/BmlsMSA0OEBd1yzHdx0mpgSE2xk2W1Qy4lctuq6pABOGYv7DBx02N+FW8FBLMFNGXXJSsluS8IerV7FmuSsI864qGFhXg/rguQYpMIYpfUpPYiCet4oSztUEh1b4giAbbayceUV34VVyWXyRWSYYGYugFsENCm95OwzGgmVHQQ1amsacMRvpIUsSWGV2hAGGmbO8XH40Wfhiad9CRQsczLTu+BHB+GrX/4k7r7nfhzwzasksDJJJK3jgK9vhFNPOgRt/HxXR9bTDY3YhRbB92twWcrlsxd9ClUjVl3jKljQ7Flpb7K714IfVLDBRqeAh/G+latAXxNwq4riMmO2uiTiocVrtYmTFNhtM5hGon7u2Gxj12SBZfWH/TRcdJmdh2EYNxqNqNVqMd1Z6RnJUAaLnwHYr8gu8lbsjU80gQAAIABJREFUoTyft41TpmneEsfxF4uatoK9VHWP42j/r3dh10+ui5HVEHZaR1DvVpR2wxLhllpgIjPH4KXXFuPaX7woZToSB6UtQTVgYvUq8NOLPo/R7ixE9WmwvQytNESLRjOOB51S+WEMOxBBO5HGqzOddUowLA9RK5QVj2u2VVodd9//Js67fDp6MmBEG3Dqt9bExuJNSpctX1Sg8ny6XylKXMnJMkUHunvbcNi3nxCeBTMVbo1IVOKEsD0goLMAqeVKiEpISQwqDILi1pexJ8NCRkAv7xvhZxEvYEWCRDU2vbGN7qObd+KO35wGRLMQ+8R5iJkorEcFNG6TCl6GkuXz/Qgu2WI+eSaGYGCtzIJVHomFNQs33fIQTj71diGqMahxsd926zLOn3I81p04EuHiXjido1CvJzj+1Cm49pf/EACUX8jZdt6Ze2K/r+0MLZyPuLEAlY4KRGiCJs7cTlgMDjo0ZjoM5mJszIyR2AaZsBkSamqYa2LNyQfLNjQX8BNrVyZKlq7wWTrDNbh/ZAMfe4AatbxmqgKYqBDKFlbFAU2AXAaMgXCf+/AUKeLbjul384Yhm5ylUmnzZrMpxkKcUHxlWTYstyKmh4+mKR5LI1k+lHgKAW7iEEtUkrbcFDhg/22x5mop7GQe4uY8lE0LepLBJFciiZGaOjS7jEbAnoZRiOJ2/O3FObjypr9j+izVE0IIjwn+UftuhF0/3gXPnI0k60OsRQi4/xZTGR0s1nliphshzth74CKMDWi5AC1T5USvi+M3rLXxyvQI19/xOP7yOLDzlsApJ3wMffV5IlLL0p3yDWU3JGXlOMBVsIiyNvTV23HAQX+RAa56FHLOkZn3YXALz8U1p3lzZWaQEDV8/iT8wKpErgXBR2065B8oXgDhCU4vBozNNgb+cNf50JJ5MCMaAvN6qQWhWvELGiixCyNfgrXcZyQKArE8IHvFKI3C01Pn4biTL8ATTwWSADCw8iMuOGtPHLz/rtL4ZaU+HM1D6EeAZyO22vDYk9Ow70GXoXuRojaQXbvFhxycd+Yx2GSTSQjmvynYU5o0FeU+o3O6DoPYhQSL3EulMDZm1hVYMJzVsfoa31ZbUJEGUPcmb6WRWpT6ozxR1ItbNLEnVD1AxMblvmrCNxFfEslGliZl5W1C/6cyC4kPsl4orgX35ucHQXDsu4l27/V7dQNXpToOlBEtzBkNRkq5VzWxj/lWF7bZfHWM6HJQ750LU4/g0mUroF8Gs3JVmlSIPlmSVI2mSJstxKeW4eDPf5mOq38yF37OGuQRP/3xdmhr64alLxYyEMSTk54TAjAooI/VAQKRuQTc4MyTTWD8rjhzYTgdCBILDz30KH52JXD1FROhmxnKngU9XpqUJRwGMfFRmEWrpeEf0xegr5bAcapSQqUSlUarQWlpV/J0fC9TDJ3VCgRSXUnSLjz9QoJf/2GGyO8xdnHL0V6xcP1VFyOqzYSlzYUmyuJAZ4eHDTcYi7aKgazegEZeg0QJ0tCV0hWBRJZ3qdgtVRvRoeCyTFOgMuKsE5f85Bacc86DSjI/DxKf330tfPe7+2GtCSWErXloay+rHg6TFYpQdcOaZs51SPHTa+/B+Rf8WTWO5ZnG8cd+CgfvvxvaKwEQd8M0lfSgNMTlNoxK8V/5okjDnJ7BDxMYVif+9MDTSJMuOG4Vfc1FML0x2O/Qi1Dz2SKvIUyKLWFK2QZWnxlLCns01WmmSKWD/66bpqnJdlixN9XWGPi/wbMoJriu61domiZW8bnnKS90yLKdZQLPKBeYG3DhLZYlviECnAzYaZsO7PvFTTFh5HyUrF5EDA6aBs9zhHYbhyFKJQJahRcFqwuc52zMkhAp86DF5dcYDUNbD7ff/gSuv3ma4ACf2gn45sHbIvb/CRMBLNriUXhWgkOuFckSnkzYgUWEwClfss9nIm/o0rTE5d3zSpg7Zz7mzl+ITTfdGI16HxwKzRRr2aBzU/NMh+OW0Gw2hdutgFa2gjMomJL+mnTXoi0ROco0HtYaQk5ipsBg0cIkHHzczXi1GyBbWdL7DPj5BWfgS7tvBUv7B9JknnwWxWqp9Rk2G3DYji6giKto3nqcBwulomUkyqOUql+646IVp9DtLnz3pPNx0y/mImB6r+IqrrjiCOz86Q2RZXNRsrkP8JEGmVyDLM0CRLJZLUCq27C8MVi4UMMLLy3EvgdMweLagJLW6BHA1Zfvi20/ujaypAZNpKtys2WJTNTZLKIUAzZdyRzhUigHNwZcG7bj4Lqb78Ohx90qlaviRT/aJEkoXTDsXkM9Mde2LOs1ovJFdjEcbpZlOd/WouBi6Yg2TARcuUQkwoAWhthkko1zTtkFHc5sVK0mQHyCm/ccQ2DgYz2deAwzJrW8kZir9Bfz6qRURFhZaPpUgqrAcUdi0eIYd931IO6+Gzj9lLFYZxIFc+swMgYGxTegv4Z8Kien+HYOjKtcvVJ9B79LAoEuEz3JaIKsghpjFI9lTiAamXlwUB9FY2B1fBCFME0bhm4p4DPplxbIL4vvpWiL+gQmHCzx6imv04Jvupi20MX+Rz2GZoFzUIpOB5758+0Y3TYHrt0tGIVrU628KViFZtFBnVdJkJQrP5mcrKzk6X5BehLFqhghtytmCTNmN7Dt9lMkqH3ykyNwyvdOwMQ1u6BrixCFi2DpzHr4KKmQnSFmZkWtDFHiJuuV3bRlIXrVQhNRWsWlP74BF1/4kOAL3JZcffkX8OkdP4g0WAyLLa4CaubPeVDgVoxYfof6zKYfwXDZuduOf85MsOW2x4n0ALEgCc26/vc0TTcadlEiP6GhDhayCDoOJWYJlsmEo9I3Fb+H5qWZj1DCsqwxhY9oGSODPqV6NpHypIYKgN9f/2m4+Ic4fVdLjgQGiuAyBSTzUtLKMBSWXjGR/vWCNIStEOVqFY2YxGcbmtEG3Shh5pvz8OpL07HjJ9aFiYbQiTmpuYXJMhKlqJDNfDTqN/nl5ytJiuI7hcMiQBgnRL1elwqOU/LkewVJ55YmZ23K8Tl4ps5Zoe4EaBkAVVBnbwbFdgciFIMFtz3MmqxE2fMxYHDb0Ecti/Ik/PyWN3HDbf8UcJSYBqubG0zqwrOP34TG4pdQsrm9YDmVf1JhvqoeEK78nNDcLnG0kIzFCaqGbhQ0YVVLaNTqKFGkxyrjhhtvlZbwvffeB81GD8peBi2ty2ewkkTjIEMriZu7VlgjigcCMRLiNuy6zURrlC34JW8UnnnmFRx26AXY8sMlXH7JWdDNBpLGQmHlFlgKt4MiRkxMQZYCXqxqFBF1LPbsuG1ohB343Be+i78+06uYrgNNYGwSbg7NwH/7bx0OwWI/TdN+JtJquq46LeN4PQCvvv3pr9R3bAgLL8q80Rw4MREJdheGqJFJqJHmzIanFtwkwZSTxuEjG7jiBUrlaxG2Za9AbozDf0dpLr76FqcpO3F2hmrsE6HpcKLAQ8OGz0YmqwrXKiNqsYpA3QrKvQn1V8qaNM6VdFyAlEH1tjxDkB+ZkoprkW9AMV/LkmCxuKcHJc+TFc/od+8uTnIQLsYtjwx09ZOBQ9zOqUAdK+CRcAnLg6qpTIeZOCqzYALOSWfpCM0OLGx14fRzHsDzL5PbxDVXaXyfdtzeOPnk/bF4xkPorARIWg0Y1BQUQJPlQaWWxcxKFu9i5S5WchokNRrQXA8BeSNSQXFg2jQrZtbHABch9utwHQu6W0ZGsQtiHtUORbRiyiAZjAJ6BZHl9kc3pKmu2Qpg2FKeFJq8Z7to9dTgsT+EAUiOIx09d2UvOmkZUHkdVBPWEsSphcgagykX3oofnfuQAjmFr2IwGB8J4OKVOqJX8ocNh2DBAdgPdHL1MgyD6tb0y1glLxvmCYmFs4SKTfXVVgo7s+CIsV8gKtJWqVOyBi2oodMEdt0GOP7wzWDGvUiipipfGXrOW+CSn0+0twwUgl7AYCMR6b9hA3bZRawlgmNQQr6vN4TrVBWQR2qS5ivla/A9XLe4wnIFKxrBlv0iNenz4CvbCAazem8f2rs6EfkBNBKGpBI1ONgsDaIznS8+RyZRQtcz5jXqGtN8knGfbhDoEyxBEnPZngTELqwStPJIvPSPBIcf+5QsnewM4lcT2/jdr87HJ7cZibD+KhyDHHGKAjMQWUhEQcqESWxATpNll9xmkJOUAS1RK7cu9He2EFBLgxyVFhwCQAWzkvqXUSauXrSRT1pc100YfA91CKVdNFd9zMgx1cQSIUp8uBULfX19qDglRI0Ujt3OkgigkTQi7I282U1NKV0yL2r9KQXhlt+E3TYBDzw2E5/7yiUIZLXwkKTc5ulToyhiJXBYv4ZFsFiyXpCMdVpxp3LuxSrpRK063oPNINpeWID53p0Ni8yIufLJWsNuxFxbgBOhpCnJujtu2hlm6w1U7JZMyjCOJVgwdZYsg9KBMvcIeuVXR5xBBiT39RxiqsYYSdrOha4FwzYEJ6BSVBQqEV2m/RIsRJZOGpNVI9U7GF4CRLJhTepsGVrsTXA9+SlU5P/wKtB1vo+fI0CuocM26RVKhW01cVn94PUQDea1CjGJ12ha8GNKA5MnsiYefLyGcy57XjQ7FVSpo2KleOSPl4uDmmvPh983R7pWHddFyqxKLAo89SAEB8gDhmQBuSw3mWAqB0EQNOGU2PgRiIu7zhZceZC6IoeQFk7mJOnloj5O8VB2dPFz+f/yhhSWQfRMiHGWpzrP/N4GXK8NoOGzxKF81yCZXoGEM5MQ2p34zRKnQKkLLzw/HzvsdDbqqSLKqTqojA8eWABH7+CJDs1bhkuw4NXLbRtEAafBzh7v4W0ZBQ3zcuqdpIseabw+heeAww7eCKM62/Gjsx8TQhJXApKNSA+g1gHfc9H/fgybrtWEncyXCoHs76l6TfeHTP27WLXVaqtW8AIj0FKm7VyjWRokHyOE5dmi08DJySqGyZ4EgfwKLsQglWy1hqlbJBaBaqUd/FP8RVinJ0+DXab5pOfEFyJcgdwve3wR2zRNsAoeL6zBOJY2dQaeepPGv9RXSHOylAqEikSl0nIxzDEM6WFpRB5CfQLOvfx+PPg4UKfMvuYiTX1s+cFxePjea9DofRoVuyk6obHfELUwedFnRLKMfMXOJ6NQvtlm73WJsQ/rnKZLAeA6dEYvzkHhUJP5yrjMsi8DAp9ShDRT4LrSHxXvxlz/X3mQyvE0WaJgTdCC296BuFaDyeqPeLaokCfnl5fJVSaTZz9sHQ9s8Uf90t7fxaN/ayFio6FBMDehfcIXkyS59T0c5yvto4dTsLjCsqyDCxGPvF/kPVEyNjzjC4mf3CrzLG8l5zNnKzcXrXPP3hbrTCaxoonunhhX//RJPPJnNSy48DDLYCvzAXuvh713rKCCmZKas+JAUNMPApHO598dSykY2VRmDhPYssoRIY+ldV2UlXSWUVuqzCY6EjwvWyTq2U6uBP7VJBFOhZo9y5hS5WSAXEdTBv/gMsm/GTIDMOUyx7/tEFMTSMR+uZeXD6KmJ/kF3GYorMEyMiR+DC22YdllSvmgJxyBE055Aq/Mghj+MgobaYSD998Zl513FPye1+CiV3QtRGeT2YPQ0nVoxBJ4eyiEI65C3Jpxi8LOnNwvVbZtiocit01EY8hV5wNWVaTMIPVUVVqELyLBSNkcykH9wUhlgQOBgMcXHTdMpVjuZYLCYEGYS/E1xAYyCRDSxaBtbRz/3Ztw+U8fE0AzY5DmFkbH9Uiw79ve6mHyhuEULGQZZpDgH65Irus+5Ps+rQJW3ss2z1hil3GKTvn5NITjpkiCFO0m8MF1gKMP2xFrrQ74rWmS8puUofM7cf+983Dp1f+Q9JF/uOemJN51Uz4BK3xZKjlcoWQVtyxZTfn/yLIjXuCYdL+OYZH6HWdK0UgWJZXexmggSQPwvEzDU3V5CSgsbeYemDJLigEts2ygZLfMHVoqTvyHoFHwMpa9wYN5hG9989UkUsdzS8XVNBNxGtHwFLsuZvFMyyK0Oe3COYmpSal34c15Hdj/yIfQSxiEvS1pJtuYS849Cv/zlR2Q1f+OktlSqRzlvsK60LkbzVC1x4u5UAidGpxCxCCGk2tI/EuwUI1oMuHzYEGVcXqZFMS2fvalAKg50Flkav1cKP6u2AIpQDTV6ASXb4V4rOUgazagtVURRTGsrtVx8aW34cRT7kPKrSod32jaFLaGxIJwRSbScAoWvI5zNU07Nte4oPIP/9/mAJ5ckYssjrXbOu4Ia63duB/m8kfFAGYPrgZ8+XPAIfvuACfpQ6tnDnQ9FJJQkxqPWgml6hp4ZVoLF13xNF6eBtTJF9KAmy7ZCOM6F8lXeI6DKDepEU8Ky4BtsNuQY161eBuGKaU716mgQbSeiyI1HR3V50En8yikepIrAUUCSB4slDeoGvhaStk9XgYn6bLVkOKKB2El/xINVE5RTPaBXy/9WQNYy7LtZuqIgWChSGeJwWCRiOCvBJFER4nUd7+BOGBbeid6fR1WdSweenoevnf+66gxU2PLCwWAM+A3vzwPO2zVASedD03YiHwGLeXB4bnI/FCRobiCJ021f6VPhxAblZDPUpkFg4RsE5QBsZDaJKvIWahylAoQ/RNC7nPRbp7fneJm5Pdbcj1mPRQ2EuNkpp1Mp0ykug8fVTz45wX4yv9cqpoGKXlB2T3h3sRdABavjHG9qj5juAULUSpO01R8ReTBa1qaZZIbrtjLdWYjSMZxhtHX0+XKlDYFwz7+6A3xiY9VYKdzEHb3oKutXTKBRqsFq2SjGfpohQms8gT0BWNw7c1/xh1/6JMS+mnHtGP7rScI8EdykJZFcKkDSYl7AmJ+U8BKNneZtiudg9yOWGzz1lLpOG00+8T4l9mIbDIEuFSlOnUTKKSj9u5kcXKF1BIKuih/0BUPFvzkYkVd+jb/p2BRELgEU5Eu0MJ8OBGVcGIXrObQA9XJfKmWJElJAL++uAm9siZ+cffruOya2cK/EtKmrxL+O3/1fWy/5SRYWh2t3pnwSqpMWWvWUO0cgcailvBTkNBDlZNeBc8CL2A2JmQzuUmc+AMAJGnYqrLEW6e2S7K14L0s4gK3hxJk8qE3OFAUXaYqqRLTIpPdrn01MTKSrVm5gpem9WHr7f9XsBnyknUqn3EhcMwdY9+/f8UG9Ko/etgFiyUK88ctcXaYogx5M/lj2/bXwjBcXtm9EgzUWZ7gcCaGzwVKujwBnH/2h7HeJBOe3o2wuRgV3UXUZONOCUFMEVy2k0ewXEdUqCISp+yx+NvTi3HheVOx+SbA8cd8BJapCQHI1BKUpF89RBS2RMw1okt2zvtnKdAimzJvsY6jpuAYJs+M9n2aKvtpWYLA5/crgLPYQytsgMGCXcikjhdp8X8aPG+dFSwTFgqM+Z2Nwv4UXc2YguIsoGbe+KVgE24v6NJOXEOHobto0QPE09AXaUjcCbj6usdx592KycjSMWNkmw385ZFbMbZrARxjAWxiENSSKL5XryBjKTsXnSmwHJVpkSCWSwQWPfWDMAsFY+S2j3QdU1Gj37xY+CM5n0P9LKoWRVCVA9T9MhIkcQa/paFMSwB6qvoGps/U8NGPnySJBrMKYf1TrNkxzoibw1+K4a0GwXAMFrI8DDYiWgElrYmw7TfYrmfkKlZMcz0TmLwG8IOTP4NRlQVw9EVYvHgOOipVWbn1lDRtHQbFeVir92z0tRpwPJYBKfYyCs16J5LIxg3XP4p99/0gbIs1jQgW9QsoRmuw8qCwF1ZIopSELQNepQ0NnwCbhZQOWFkLFgeqlEdTEbwJQ6bWCRzbQ5TbZhcZhgzXHLDjaq4GveJtvPXPdzb33/W7pHyrdBzUORVMUIVjqN8Ry43hug7iVigYjOuWUG/WYNg63EoVrUBDMx6N/z3ncTz9EtAjAUOZHlHWdsZrv8KIcg/i2ixYaQs67dqaTfh09/Jc6bwtfMLU9kJlFwXmorZueXYhQTffuhWVKQnaOWic/07dzTyzLeJsP427AJhV1SmhSJFbAuwuBDVfuosjrRNbbH0Y5ixQ/TB0JAvYn4PsDry3Fb53/RjfzQHDMli4rruj7/v3FheS1/qvAd65IWy1Wt2mVms8yn2qTt5DElDDBCSWb781cMQ3t0PF6IPboudDiMyi/wKRfEq9qdZfYia2VZYWc5YL/aCGakWH34zgZKOQphZiPYDtWaj3dcO2TJSpPEVKcQ5sEhy3nSqi1EIj4Krr4b6HnsTkddfDamNHocOJ4Zkh/NYiJJmPkkfgNUUUxiJnR18I0UcoUmxpRssDxkDO/G9Lp/8OzSgOfTuexn8+vggWrFOolVxtRxSuIqK/KbWweP9U41kr9DFy5Ej01eqIWZJlW701Et3BGBx3+h/x/HQCyDrgejA1H0aQ4I3nrsV4dnqG7BsnASZCZobQuM+jAYeUfYvO3jxRWCozyAUx8q2ECrA8X2p55nsJCSRKSnAg4BSYTw54KurgMvK5muglNhb3QfdGopWMwC67fwsvvJrrVrC6xQTExOwkjofMevDdBIV/995hGSzkkZj6c2mSbiwnzvKmar3dBMDzb3fhtoGvhQluVKsxW5kjEWchSe9re5Zw4H6fRKv2MsykhlLkSHeijwY0Ww0WptGkYBN1bzUy6daUcmDIHo0AnmUjqmuySgZGhEarjmqZaXGCMODWg4oTRPhZ8rMkUARUurJHo9bswj773yHjm9uhT2wOfGHXsVh//QkIgkWy3aBLOSslLBaSZSnybMtwdiS7yNPn/3Q/3vtgob6dXFcpNAwCYQXgJF9EypvkNyhchM1pGR3d3TLMmNdnozf20JuOw0HH3IPZvUCcVzD5w02Bac/dhFHVGFFzFiyPQvo9yLIIZsbGsjxY9E90dR6yhZCsYtC9EryiMGgmkax4DyslA3Ttonwq2yvZ+rzVXeaxtFZI4HSMQL1pY/c9j8Vfn+OABZqxCpxUGQWiFcfd3m7gv8e/H7bBYkllpALD7JNRpeSBmNanieL//qfXUYaBCwrbNw4a7krZ5XjYfqOx+47rI4vno1TJ0NuzABXLzRmHHF1Fav3v6M9Mrov0VPE7kxwo00XNuUiIxdtLgoGjl9CIIsSehpaxBp5+YSROOv1OmQy01esEcNmUTTB2LFuxa7BNH0nsS+XEtW3JUBRol//Mp2Yh5fZvRvF7PGze4uPzCoFavPMJWDS2FRE/P4yLueolYcMZMZ0EVpuLnpaFuX1VHPjtJ0TVXziQ0nyiem1feJIYBtvq58FCj9DsE5omOWwKS9QKnps52Sy3EiggIFx4eUgSESEzYsRGpABYbjdTNsYV2ESRaw2ilJsmwpYqjZPwJSo0oqjjIqDyqlGVNvZ99j0Of3taUTVaidIDUWHLV9Lk7/PXcA4WvLXHQcMUg1Rlsg3YPmzqF8VxetRb3ncdpy5ZjE8XBm+hEEKp/SXkoVOPXRvbbTEBejgHnhOhZ1E3Ro0aiVYrV5xZngcpdXZRbhQX8v7WbrYfSa8EB6MJPw4QVjSEzvr42U1NXPurp2TkELqcXAUuPnsbtHekSBK2PPsi5csJQpUtlSYPBIvcGW8QpyBPvZbn/If8GA2OWRLSWpCR5l6GZo/GqzNiHHb0UxIw+HQ0vSQsT0NL8dJTN2Dyaibq8/6OtjY2fOkIenvh0EQ0yxAQW6qU0OpZKEZKSiOTgT3fMukqs2Cw4KsIFAP2B3nIH1SSDqNEnM8osBPUabDEKgl1+spopFUEWTt22fVgvPSyikvids86m2ZmWaaNAeoLhvxWr4QTGO7BQhXNM+j04mBzkWVKK/j6AF5e+vr179umcxpFUslpYIHUQYBOCzj3zC0waQ2a+sxCe0VDTHcp2EioYGTTGnA5XxIsVKZBUFSGmdxRqnCrzILlQj9NEZRsJN6GOPSYe/Hi68xgUlQMYKfNgO8cvi0sp4UwXADLiGFSr0/6IQh65o9IlmzFjlTEcZVgqerIcl/Bcl74yjuMFSfbduAYHvrqAUyrjMTswoxuHYcf/wi6abjMLIQES/IxYuD+Oy/DNluMRmvxq7DSOkwtRkxyFJ9lxpb9CIZpKadmCtwInqG2mAwearuUZ2qyhRnAXlhSVdoUrPAoXotGF3RRoRfTUfFeJSu85muYucDBF7/6PcyYoTaKUnzVXVHpyoDJgP/GyrtbQ/tJwz5YeJ43wW8FM/mIFeWNE4UQZD5blJTYuQacY9nIxSoCbfAoLc9AceYpH8b6k3R4bhNR0osspaZBgrJeIfSJkKDmCjwDFSwoo68qAFJ2k5bqTGl18js0Ew2rhIa2Nr6wzx1ohNSiyOBlKY4/YAT2+PQ6SLNehFEvHJOBjkAhmawk/BT77YLurU52IFisyNmvwIWvhEN573STFSMg9XV4tqLIwy6hlriYNi/D4cc/hRY1K5kgqHiJ9hJwyXlHY58v7YBw8auwjaZEEvZ5aHqEhKVZ0fDgFoSs0jyIizo4q115B6uUPQoF4Fzrk54FEn/5Xl26VJnZEvEOmgFMuyyVmHLXCEx9ZQ4+tsOZ/fqiQkqTP8QptA8D0TMr4TYNm48Y9sFCraPmqaZmns7MggGD5sKGlf26GQR72bBPiZCewQdlUuA18YVoxR7ES87eEuutZcHRF6PpL4RpkdxkICWD0iwhDoiqvz2x+T8/reIW5o6heabBLYiUE9MMiVlG3RiJV2Z5OPS4BxDyd5qOUpbiyrM2xoaT6NzXI1Z8hsm6fQSDbtlUpyoAuFx3okg0/q8EC24JmDVqEclbmgDZQZTB7uhCd8vE6/MinPLDZ7Fg8UDhQ+xDlxRCTjz26zjjpH1Qm/8iHOI9rHKw5Z9bkTYaC9FtNVff5pZQXNcYmXKSVtEHknfzkkhGj1flkEY9RVmJlJq368puMNFdGOUxeOjRl7H7nucpK0LCFzzvWH2fabkfiaLmU8Nmlq+kE3lfBAteKzW+CNqvAAAgAElEQVSYTMPQpeeCvGCkGNHRObWvt7kB7fPE04IlzhRYswu4+KyPY1yHjyxchLDVDdOh27Q0IshKJhaUYli7Ikl8UXbLV/vcVJj/UjaAHLs08ulCYE/GzXe/giuuex0tNkcu6Vpl5nPLFduiy5up2qBNtrSnSEKK0lhKym6pYFFwBFT798A2ZCWNhlX9MRJYY9Uzwy5OydCY6hsI4gyx7cKsjMY/51s4+fsPY9psIGD7hUflf24PYuy5y8b45TVnodH9KpysDoeosZki86n/wUpLcZ8KaQA+fAaEvIrCVIWq5rL94H1VrQDq+WVI/RZ0BgoiSZkNszIe19x0N444/naxMmiSJ6bTwT1FuVRCo9m70toTVvXjeLvve98Ei1xMW5oURXeFmWShUSAAoGodX2Mk8OOzPo4OYwHMpEe6iG3HEBaliAJrtkrvDaUlGUu1YXlfxBTUYCwcqETRWYAz/o44ZYLEHIWksim+c8YN+NuLKZq+YpButZGJ8773MZjxq8gQwtKZ5RDBp2qYhUyoxqqyoDIKVbHhK0dKcsxiec9/aI+TipFgCWSqspOccnpUxzLguWVhudL3M7M6UfNL+N/zHsKTLyjQM8mFdnk7xnYBD9xzHSau7sHvexVm2osSXZESVjSIdrNUmtsLZhTnyWncUl9VLu2ZBA/iG+RfkCaecyto2EH1I6cDftKOcy75Nc6++AHQ0UEqbsIrKVrnY6pyvz60d/W9+/b3U7DgM9kbGm4QbwohxCnpNa4A5EqsNRY4+5QtsVqHDydcDM9KEQYxLMdGk0IvbGgCm7V8+X9xGitBmOV+DQ4WBDvVvlcFC5bj1FxvYRT0ju2xx9cvwoKaquhxq7Tv59fCN7+6OtB6WSjeDAHSpcoeEY39JWSBMmUaFCwkWObAar6vXu7TH+IDBZsRYWMDLfqlmnSZLwlAbZs2fBomUS1LM8RzZWGjDedf9jgefipDTOtRoW8w7FIXIsU1V5+AffbcGn7vNLh0Uff7ZFERxxPxROGYUbZqiqHJYEJ1LGYapf5gocrUCrvIUn5/Gc2oigO++X3c83APWizrSoxguzAzIToJhWstIQ3+c4hv6Xv69e+vYMHOzk57Zqs3nDDAblarwXoMFN/7BNbsSoBgHvSkBdtIxOhH2fFxESgITsQT1GTuX7GX6zYPDhaJVEaEHTjIRyImKleajPmtDfG5r1/RT81xlozF047bGp/cNISDWWpgDhLBVaezLF9BXUu/1kKRtg9SlF6uyxiigySzyFTpmR4qCUVhdOIKQo1TWwH6tOg2ajQRKo1Gb1LFDb9+Arf8JpG+i0jzkOk2kNKvJMYXPrs5fnb5GTDTadDCeXDQhE41L7MqrfKJ6FTEMMoWUmp38ju8svxOyqwGJfdYIYngZ1RFH4NH/vIavrH/pVhcV/0rgo/mFW1ZslKpgqvOtP/Dr/dXsLCwKVI8LXaARAm5H6UASuxjz4+XcdR+n0CVku/1OahU6KDdkBVHka2UDZ4Y1UjpjKItRafl8lUUZN6matXn9iOhdqTI8yt+BQcfrQSa2Wp4feFkHHjkdRIseEplajecuQM2WmOxkIzkvYODxWANiv7MgoN0kDCLlE5z0tH7cJBKZiHSvSQwOcqESajYDBQqYJD8xOzPpgxgTKatgUQbjfsemIsLrpgOGvwluiP3ztAz6Fokuhh33n4advz4BvAXTYcWN5H6Ibwq5f8bANW3skBaxTWDMnu09GF/vIM4MmCW2tDTjOC2j8OV1/wWJ556tzxjih5RrV1MjShObFlpHHFD8t/xej8Fi5HQsUB2+6kJQ/pHuZIHcEsRvDpw7IHrYdcdVoOJ+QjCXuhmCJ0CKoQDRQnJFretwfRfJay6fK9+erNsXZWaNQc7UXQVLOg85qCprYU/PePgBxfcLWpbXDE7DeAXP9kVXc6bsLXFKlgUngHSEMURPPjc1KOSYCEYjVrIhDn6Ps0s1PUsMwRZ2swvm2rmrA41Gn2wXVc6cMNQh+uNQLPh4NlXazhhysuiLSKq+/kdK27j/v+zCy744XEoGT0wwlmIG3NgOjpCvwe6zcqLpbT9DBso8T4CdZZHS2MxY4GBI48/G/c9NFeemVphKKZsIW6xOKo/ECP+xPKNnPfnUe+XYFGCjjoBCj01Re+AnE7LsNErgqkJqpkql5550sbY5INtyNK5MJ0mYrpGid2dAz1ll6I1CIxU3YnF4Hy3j3CpYCFZS5yvjCQPsdbuIEg9mG2b4NIbX8PPf/2sbIeoJbveGOAnUz4DK3kDNjvopeqh1KWkK4Qr7CB9BSX3pvpWBtSa3t+ZRWGTKLRrVrQEv6WauXqRYKfRIlBXniX0crXoTUptUhondayJqXMcnHnhg3jjDeWMTgIXVb7ZbxIHJGyl+OW1p2LP3baA3/06bJ3ktz6pjulsGDQqSGs+giyD1z4CidWGO+/9G/bZ/6diVizwN41GKUMupick4Onnp0iHlc3mux27y/P+90Ww0Cw3zaKQYnuyOSwvWZXXmzQe096cje5cJbqjZCFpUm0CuOrSndHZ/gY8r1u1iLOvJzFhMiNJmJHoiA32dcQq3V3O5GJwsCDOJarbea+IBIvMQ4xOVEZvhYNO/BUee6ZbYDOPzM3NgROP+BicdLaKg+JlWrRLM3NQUnqFM5gg7v0NUQPq1u/nbYjCktQQVNR41fwlz4Pt3+JAHooPoUgt8rJp0UC5gbSFuh8hsUehmY3Ez278M+74o+JiqKZ1C6ZYj9PoCfjQB8fimqunYL212lHrmQZHq8NMIyRhCrtjLLLIwAuvzMaUi6/Hbb97QwSaCz6ccC2ozqPT5zbZLUlw5/JMtvf7McM+WOh6KUnTSHfpWB0GUkVgr8d5P/zSnPsfeuJTd9z/zxdruS4rpxqDxbh24JILt0Gbt0icvEzpToxhilCzMucJDaV9ILzL5dyKLB0sNCSCJ4Sy12ZwyrIyEoyC0b4pdv36FZhdU0LTDHgH7+ngf/b6ELR45iDj4zyzEJxF6UOqlLoQnB3caaoUspS2xYpUdIZuCIsKeD4Ci1IzG7tyNyFliyj2CEobhJWhOCS7NQX7uVhFoU5IMy6hiXF45K9zcO5Fr0vBoxmprIBK3jFLqMxGdeDrX9kSP77wNGhBN6JWjwShKNLw298/iCO/c7Noq5KqzYYxX8ot5OMQy+CTi8cA3Ar/d76GebBw3gD0iXT2pDM3V2RO9fPP2hYTJxh48tnXjv79g7XXHvxb353cdvLZ8oKoWbHxJODMk/dAuzkDjrYAekb2TOGDlYOPcvXLYgPvfCD0B4tMQ0yxXnH5jvJgQY5xBTHGwTfXxY5fu0ZoyxSGIZR3ymFj8NntxyON57CYi1QEZwtzbK5iuTq1nA4DAvfUg36fd6H2t6q/89MePu/MSVmqDyO3/SuyPClDc+OZwbCUMnqUklinrBTjOBV7AnE+Y2XLaoOftmFBbwknnn4/phMztlXQYD8HS6dSYmVhZEkY/t7x38DRRxyCqVOfxFFHH4sXX4mE0yEK7qycpfRGcZBSLQ3J7SGyLwyfGzc0ZzJsg4UG8zZDsz9PBSkdTSpSyvbje99ZG1t+aAxsdKO7luLxl7Jdn3qub8+77p+7Px+0bPvZaZoCn97Kwwnf/DhK2kyYWrcy6JHhlTMFB91zKcG/hd7UvzyWQeK4TCSYOpMlSJVnApxK0k0ZBKdZBam5Gvqyidh572vEiYvfU11SofvBsROwzYfYn9KbBwsbWZ4lUMOCA7vQ3ezPLCRoFNnFsgpZgy/mLVQs+rOPZR/5v9+DSSu5wMgDCp2FsfPybt2Wup/SR1P0YijmZP+rEKqhPSSrQbkDmrJvYD5oiyuankWIwwC26yBih29aQWSOxdU3Pozbfk8sAqB5ecG9sywNcZjBIU6eM2kZHHIDQ/WAdEuq06SLWdD38REqbZT/8tewDBamqZ+bxThWVK5gwIAv4OUJR66FnbYdj7gxU/atcWajJ3bxyNMLd/jr08nZDzw+Z4s6dwK2DitJRS9ir51L+Nb+OwDBNHhWC62gST0cOJ4Jv9WATVIP5dnJmOTdYHZPQ94MYnQsjl39Zcyc1cdBU+g3EIdkv4m8L+9UJAMTGXMhhPZ4vNndgX0O/52kt2SZuhlw1XkbYO0JAfS01W9szK5G1RPJlY0swtxekJNF/qjmNMk12CiVs1iXqpzIeb2V5E2hVF0EHFU2Lpy+C0uAomuW36Ga4pQPe38wZXNVcZ0yWZcT8CkmXhF83+FWasBkmt+tw8g0RLEPx2GwTuAnEQxvNPqaFUx9tYnv/+AlyRa4oRDNMU2V0IUpyy0hE8BEZRRyCiTBxaphUcvIgcH4JjDnvzxOyOUPv2Ch41DTwOVJpKNs24hDH2UdOGjfsdhpuwnoLPVCj3ph0lRGs5EYBnr8Kh7+a7D5Ey/W/vDQ02+OqImDAOBagBUB+31pJPbcZQOUjEVA1gfLjOEHylGcsm708SDFmrtSAqKmoXw/lPCMWvDIGi3YmcVkHJCRK3QjlbMV38v3xHoZvrMaps1vxwFH3oFWZKKkxaBQ9dUXbYQJXb3Sn0hqsYgx5RNPnM1oEs1aTR4wCj8V/pvnyD/yO8rPq/CyFB18cMAoMilWHyQz6M+sBoKFXGcRqOT8c+PjZQNPPwirhs4KB4sVmIW814ZmI4rY2k5SXIiAPTZuFZrVhe5eG1E6AT+/4QHc/QBdaxU5T5T4WDalWxqd5Ih12RbiLEbEQEHYJO8CyDtJ1wAwYwVO9f/EocMsWJg7mnZ2bxxxVdU5jUEv8913cvHtg7aDo81C1FqEkqMhrFPbwkMcJnDaRmFmL/DIMwt3/O09Pfe9MqMFn+Y0xDiolBUDRx40EZ/feX1o4etiZuxqngyKmt8L3dbhWAw+utDDxeNYeMK5wjgnmXACihVbraY04LUMNaEpukF3cXaocTqShRiiDS1jNbz8zyoOP+EexCjDQgslpLj5Z1tgVHUe0xeYmq6CkWQUFMFh6q0+s6CjyyovBkwq26CXKglhggC+jcTeW22v1IPPYOaWC3Ktkj4U1HLFUlw2GCh9DZVB9fuWrFCT/4rMI0NKrdLzYyXUmlFO6szQbA+pbiPg741OPPGXGfj59dPxzzmKy+dT7Jih2gzFRJ0hd8LIcsspNyZ7pvnbl/8Rb87rJ4kuYVkk62gHuvtW5Gzf78cOp2BRcQ2n5qd091Z9PPSi3WEz4PgjPgmXuAP62JAoTl9tXhlRK4SjOWiGCbRqBQ1tNfzqjjnb/fSmqQ+zO5FEO5EiiICyBhx96NrYfcc1gcab0KiQlfqwO8gMpIydrlJ73RKfDxKkgiAUox+1BcizDK7sArwNSsEFtVd6mXpufMysI0IbMm9dPD1VxxEn3inBgkJsZcS4/aYdYCSvyLaEuAc5wyrXU1mFZqqfEjzoH5pnEuyklGDBJ5eylKeEW4ghDKToeU49yAxH1ECW2lYUPSxFuXaAWv4vg3oQm1QCVP4qmKtDNwmUajefj7A+KTegGdLFGqeUH+D2IoFmVWB747Gw28ENNz2GP96jmscaLLPyWerA5DE4cepsnHXQbpUNv7TXni8ed/K1eH2G8gwyvDaELeadDa5ded46dFc9VN88bIKFrJE6NHYaGmYqqPXkCcDZp26O8R19IpkfRyGoSOG6NpqNRajSnYpCMjQYrlTR69topONwyx3Pb3njLXP/wgWXTT9ctcXMCsB3vrUudtp+NRjpdHhmIO3iPJ7sQDERFvNcJTwjymnMOBggKF6Vr6DFNkH5sTIsJEjomkXFaBrt5gl9nFXR0ibguZdTnHTG3cISIf7C0ukt12yHkvlP2BozEWWirIyUVXZR/JGAkQenwe8pPFWMfCLLSl9I2quo088AVRT0gorOYMe7qCjwqttSISVKFzNXD88F/VX+kTev5VuyAU2NfwWKV+lAll4cKlgZiEN26ZqwWRbjFpAa4RJwTQRJCj9hL2kZ5coaeP6F2fj5z57Dy9OBj2xXnen31rZq60Rjn8+uf31XW/ZZi9TybCT2O+ReLPaJdTgqgUtThpf3Z516JTyYYREsTAuvpinW4aPgAitcCgA3XrkH1hw9D5k/HVHQgEONRrOKWq2GtnYLfr0Gy3Cl/l6r12F4VZjuSMxeWHr2+ptfP+r3D8x9UEAtQdABhx7EMXDSsRtgmy07Yep1aFkb/CBDGKbyGT3dfag3WoJjJGmGWq0lWUYxOUVazdBgkRikGWirjlT9IEYEy87g2gZKridWhrDa4bZPxGNPzsaPLrhL6hukhI3vAq44fw+MaqsjDvqgp6EKSGx44pSXrYb6w94WbkgYrfiTHAOZu8xiJPModGDzMbwMUJiHn5wiXoCfytmDVRzS0ZW5ca5bqixLJeCpkKNCpOJE5GbIBX7D7s0h7HwltT6ldietzBIPSWyIjKFSyWNPiQr81JoQt3iTxtU6vMoomOZIPPf3N1CPjf2TrJlNHmte01mKUXaJXRnwkzJmLmrDQd9+WKpYQvSSxYHOM8xb//teQx4sPFu/0Y/SrwmFQAPKugk9iHHllB2w1uga7GwRTL0Bw6RICjGCNmnxpmgqrQHpXE403JQWRQ1haiBIu/CnR+Yd9+hTPS88+lR8D50ofYqdWcqflHPykIM+gDmzp2PmTB+z5wAL5qs9uEyUvAASv5XURZ7u56crk2zZDg7eVFE40FRmQwqFcEBcD1nYQrsH7LXLJKw2ykLFMtBedTGyswNt7SU47FkwIugy2EMJJvy3oYfQsxBZyvIvxXHUdkTEznPQUZUz1SMtdg5q4quIOfhh871iYEyWJAG9/NhlS6IMBgMVzcFt+EVD3tBlF+J8Ri9YtraLwhX3npoIGzH4MuARzyiVSvIeessyg0wzDfVWE5VqG5qthvjDjB3ZiWa9BY84WJKhHrTgdUzCi69rOOaUR8AqG6nk8srMeUA89r8tXAx1sDjK1HAB56RZ0hD5GUpLRG5/cPx22GajBG3GApHJS7MAupGKH0dfbxOOXRKDWSpxhin9PegNkiGMWR2goU87ev2ReOTpBcf88YHZLzzz8rx7Y8rV5ZNf0G6CmLLyKCav6Mrk1nlv0b+1VOGov2qhOlRybQSSvhRtuZiy0sXB8cv/QeqxVD7U5HVoochVPP/fhWSs5wBjxwKT1gTGjylhwrhOtLdZGN1VRUeHi7JrwJDOWWXsE8eMQiypqu5axVtQbBL+nZOfb2cVRBU5Bia36sKlCLCa+ErAJwdvc7Cz362rsChcqsEtZ5AO4ayh4LJP5TSCzbrSKxEAltkgSd86S6s0kKJzPbMotW0UBncSwOa/kgy66SGJTKSJJSQw3YpRDx2kzgfwizuex09unAY6HYoNIV8p/o4MGw3hpa/yrx6yYGGa3jZpGj0qaXQu3c+a9+HfGIW9PrMBjPpslM0QYdoS+TtdowWcD9ugKKsutncmPUMRS8nTtrvQDF0k2Rh41bXx+LOzH7v7gWeas7r9Tz394uw8MnBGKFUtjvki9Za5zMGjTqX/NThjeCvmAt9YNLkXBxafqTYcFEZJEWeqMiNvzu0o2igPmBDpUCk+U2chc8mszWX58gyF2ydGHNsEVl8NWH18FaNHjsLEiaMwcmSKyZNHSTt+pUz8poUsayBNGuIDqqcxTDpYmOyn0NCoNdFR7ZAJYmomMpGhzlTHLH07abCkERzMDYIi+q9aSrw2psWBauJjBYfbIvZvrCDTYoUGfYG3Dvi5qB2Cinm5obSW64Cws1fucPGeFK6eIaKIpuGAgs+OR/g5Qgwfkd6F7uZEfPWAexDYSsuiHxYSPo7zcBYF26/QBbyPDh6qYGFoyotKKV0hQbsJ7Li1jSMP3gRlfQ5cppQ0vjU1cbDiEm3ZJiwjImcGYWxBt0pITZrUeKjXK+gcvdG8p5+dPeZ39/4Vf3xktiDdMRXU8hWVf6FCFntM0kSDQ6ETyt4ROc/dMXlDLNNGGIcwSfzqxwRExypXF1eaFbK+F3cwx0UkQ8ld0NX6z4aUvDbHbmjyJ+inmnCNMxCRTESVKMsCwkBlOLlDHtNpeuWIOlye2/BrqA2Vi3DB5i4kAWgovsmHgLUnd2L8+A6sPr4To0eUUPF0RFEDSdCQjKTk2qj39cIyl9BhqXIOtvtryBgodLqfU1Y/Ec4Bq0mG7ohKtiliQTTkUYGMcvgM9JmllMqHy0tKu0WmJeNrgKQm5smyZRugloetPrS3dyKOiBlpaCUtaJaudEeciTjlzCfw56eARi6gVCwKjtuOoN7kQvbbOG59brhc/3t5HkMSLEzNTU0908i2E40ApNhiMnD2ydtjZGUesniB8CRsq4Qk1kVwxLYTBIGPOCFz04TldaHmm0iNEZg7177xvgfe7Lrtzpc+w6EhTeucC7w6LiRCzyus9dQi7xltsrITN1dlS132tq1mQ/gNlmEh4vkNWjf5PjIu1M+83FnM4uIp9Ttb5QCIyX1AovYixZxKgPGjRyXzFy004jSD4TpIgkDVeQlg9tupFfsidSy3YWzVpm5lwvbq/PIKjMQm+ZDeqvwY4jomsNH6wEYbjMM6k0dj3PgyOjttuE4keIil+ciai2FKFYdS+qHgIKZJ5qwu5WTR5IhV1YcbGcFzCgCWWyxRXFevf1X6ei+HbsGi5bnnjXZFCC80P+Skcm2afsnDnLyeWQJMW3asjKZCG9VyB8K4BdC8GS4ef7YH3//hDAkctCIQDIsfJ/oZFZXBwIemxz9NUxz4Hl/tkH/8Kg8WJbPy2yBu7i5NxLSipw7Fkjr39VO2xrrjIsS1N5FpTdhtFdSaIWyrKkbDhhkiiGJY7mgkegeiqIpnX5571lMvzNvwV7ct2k2pPFiUfhV8IM589WBzrgX9hauV0gI9y86xNfcbtXq0kVJhTOG4BEtDyQJoJ8AuRYsTkyt9/2uZjYhQLgeB4v13cjBQnq9qGmC5NiKfvA1Tpb3/yp5lR+PGMIx2r1LaKg6jD9u2/ZFGX73afwoFqMI4JLYHNETN4DqWkMnyDgrYQvJi+RUQ86xct5axqLMT2GRjYPLkDqy/7hpYa2wFJTeFyVQ9qiMNG6IBwa1LlqTSTMUti5oZSvw2ydjUxUCfwtZZtxq6V+F2PjgoDLBXc4o7t1CC8xRNgwMeL7HehMvKVctAqxXCLtuoRx58fQ3ste+fhO0ZsI1Vi2A5qp+Ej77iWaixS01qzlKsOp1KiUN3J977b16lwUKHdaSO6ELXMeAHibQMczBf9MOtsOH4JWaF9dkY3UYTlzrqsQ+r5CJNDAGnYhrvOlXM683Q01e54sH7//ni7XcuuoTpITMIDgNm1lHEVMJAueKhUSe123kyisNzgeTmwbfTRPkPlmHv1EpqqsxG8CsaHBzYrEiPkf+g/i3ZCnfwxUsFlMFhxaSblYxRZiMKXOM7SE5+l4+XtqibQsfmjmdvGwbhVlmKEUpsVn0U3eK5PRCCUr5Pysdy/zaGfxF9D+rW5mN9w/WBLTebiA0/MAarj3HQVU3hmT70tIE48oHc2FiKDQotlb4U+rckTYrWDNyBgivyLq9tOd9OFqviVUiXrnQVy50YBC4UtfO8asRMI5cSSLUEqaHo88RzLNdBPfShO5Px0+v+gZt/uwAJXBl77Hzm+Npnnw5su9XW+NO9z+I3v5mNmgy8frzrmAi4YDkvZtgf9m4H7HJfkANnbRjJa0Tomc6VS0DaAo795hjsusM6cNLFSJu9otLtejZ66jV45Qqi1EAj1BBbZXjtq+G2u544+KlnFx791z9jfVLpKFKiu5Z4bcgwkVYL2ujiFCA8O9+EvOV5a7B/p1vpZ5mBJCFBLm5MiS4y+ixTE32rTxAg0pQgoPYZOSeh/71M3NXv1QqY06ZY4s2MiYA/fblv6FKRz91O1/QN0jj8EpB+XBgBxFZ5OWKwbCAIElSrHho15e1KG8g4jmQCCKGLeA5L17baumy1aQfWnTQWa60+Ep7NSkIqnIYoriPJmmJdoGcpHPqbCItUsVpX7WvZYMHscDAjNdfGUB1iS4sL5dYAVBI3bVewrEWNJvTSSEyfoeHIo18sdq+ikbLbbl343O6boauDIDuQtMq46PI/4N6/AHV2r/JeC/8Fe4cJblq192HVfNsqe7qGFPCU4iJvLH9++bPjcNzXN4WVTMOixiK0dbqI/F5oUQJPr0CjBHtso6F1Yk6ffctvfv/cs7+9Z/EPi+bszLARcX+fg1jkzLiO8ZVWK/nVO759Om7QUuxdvF8ReXKrvPx/Lg3fFatoPkGKvU6u1CiLfF4OVUCaAYdKLZSmTyIwUZHdRGp9FIieeMfn+e7fyG3NDrzNuq7vwcUzn9Hqk8hDMMhSFUUgyUQYH4tqDvMzzwRsHdjkA8BWH1lPMo/Vxpgoez60rA8xG/pElnDgDq1y3EKi1OBcTmESCoJWjXMDL96EwpU+liBnpwbiTEfDMFFHBak7Ed/Y7y406wrz2WN3G7t86kNYY3wFfn0edDREMd7KPETWRJx04cN48G8NNWbyNQYGPpsk+P27f2TD+4hVFCz0qYaG9bl8cRBSS2CN8cBlP/oyqsFUeEYvmlSGsviYqV1B+bsygrCMrLQmbr/nuS/8fUZ80Z33LVhdJEwyCzpTYNFZE9GFzNCTQ5IouWp5brcOXGgZ+pGxWNsNkLNYIVHVeslZBn108ffC+pCTZVDJonhnsUUQwC1WQYJ3nBUFs3RQEjWvXp7zXd5jbLv8wTAMPg0t3c80nQ1jAjn9oGCOSfDD86xKtEvz6gsrMFxhR3cBW2wGfGyryVh38jjxldWygB730ghOurtI2YmHLKfsQGNaEVLUBkxNanrEDrwKbGQZfOhf2teLYwZMlwYHBPV3Vfmgijt/9mMWGrU81eezslPKLPEubRg27M61cMW1D+PW24B99x2HLTdbF6uPI6C8CK36IlRcG3pMu0U2nWTwMelCyJgAACAASURBVBa99mY46uSr8fo0ReZrFVi2aX4McfzY8j6r4Xjcex4sbNs7JwyD78g+OtfPtBPg5qu3QYfXoxD5JBCrvjgJZQU23TLCpILeoHP6rX949bA/PLjgrmnzVXuxDAJ6FSp6JYt4lwLpESt6c5c0oB4LXT+X8vAcstyPk/QlXyk030z4HmxSKgLH4Db2pZCK/rFM6rHqXJX6puhQFJmLfh2QfmNFz3sFj28DjM/ZnrlX6Aef5WfZjoMw4ORX11xgH/xZeAhLFcZQ25aPbmrgox9eF+uvMw7jx9hwzQYsvYagb4F0B7MsG6WsOmUwHBuNsCU4geWQAAVYMfkf6sNp3ShoDkuy1Ltk5iNek6zNMBtTaRtp9jxGZXFklapO30KfQ1Vy8zIpwUmpYA1+f7ElTKFHqbQLpIaD6TMW4r4H+7DbHh9ER0cHEtEaofReAIvVkDAQbgrLswHB0NIo1JN2+NkaOOKYmzGrG6BlXihJDX0W7cnw/7+L+jsbo6b7ccThA9RKJJpGugG7Py/44ZZYf7U+lO0+BP+vvS8Bk6Mq136r6tTW0z3JZBICCauQhSUoEQSUYFiFoIhXEIkiXOEBRVzxXi4uv7igAl55FLziRVkUlB8VRDb5QUFWV3ZlkYASkpBlkkz3dHft9ef9TlWmQSSTkMAkdD3PZCbTPV1Vp+p8db7ve5dY3wyOYovURrNNnmANf1+cXXLT7X/75c9/lV4jDlCsyImZDDsAdHoRJgnt4uaN7GBG9K5jLMv6MSHCJWlLbtZiI7ScjFdubLO2WmzSjmwr83lOQOpoBEGwGMBogwy7juO8I4qiDwI4VMdJHTRKBiwnMJm4hEgz+JPHQ+sWAse22xrYd69xeOOMbTB12wmw8iFkwRBsqhCZKYKwgUqvhyAKECahmEb7ZqUAUHHSa01/Fk+5sYXNwMAgodOJYX2P4VFfjXjpQLAWr67W3iipffr3RKmWosB8KND5jajgKM4Fb9HTW0O9TvsBhTyj5GECh8Vu4n4MA55bQRqnkgIblosk3wxL6pNxyqd/ikVDQLwa6SlyXBMALBvZXTK637UhVxZkYkSsUHueQtZOJFB89MR+HHHoLsiD52AjEsWrVrsOy42RWh4a7R7841n1/VtuW3jrDbcNXsked5Piq+WqgiQz378saDWP30BDu5dt2/fEVHHt2MrJ0jmByon0UsfR+R5OMq5MOvL6DTn+62N4Jpim+V7Lsk6J43g6P3B4dcXrQKh1Kj6lAlJlwZerE/qi1ICDZvfhgH13xMRxQG9PBIUmwqHlGFv1EbXa8H12u2Lxm5VgKoSbDLEI7JKcx1WBrvsIB0YGn68x+ISSwhhZqV1a1AxWw9ZJetPMRN0o1Q7qEnJKzA3/Z7iSdXHjg6C/fwJazUCwF5VaVfAn5CDRL5cnySDJe0EsJknko4du7sCqbof5y3wcf/IdiG2IIVIkGo887pDUdl1Z3oi3DXizmk/wyU80HJGY1RyYvQfwxdNnI249DWVZyAm84pPJtdBIGljeMrBsaPz3brj5qduu+3/RlbwtKIcm8CNDpwFxnH4EyP5nA4/5RMuyFqWpDlHlhC9XFpz0BEcRJBVFa3atE30Kkr4Kcgr/jj+nabo3gA1Z5Fyvw+T7/t7tdnuuYRinSsCjGXXNQtQic0t6t0W9I4PLmm5cFElz4MjDLez7ph0xZcsJsPNQahrEdZiK2hLsYhSVISkHaYo+8R1cbWoFr7JORO0QrXzOzWLrlDBu6qAWqYZG1mqjJilo8rsEisIScTVAT4GQF8/jXOY+U4RRW1ZOtEyUFaYoB/E4tKaJ/E6AaZqjk6ZN2G4NA20FuFOxeOUOOPaki3QnxWIwZKiiieXGT23fIMFCKXWOaeI/uLxjgYv4+14AP7vsQKhwHjwngO1XEbZbQNCEX+vDQNvE35cZ37nm5qdvvek36TUSKPKeAl5NwBE5DvHuMfDn9ToDXuLDbNtOsywzeYM8vz6hNTA7U5SXOqbOp3EZYIoAdAGAj75S57Oe99NjW/bReZqengNTnYqFdlAo4JbQ9wI9y1oHhYyoUcK1wnuOGI999pyB7berQeXsMAxKZOHE5pOcj3qLSFIWsQXlW3Qw5AR0/cEgBUzUxQIdFDq0QXVheliAWZ/387nBIhbEu8tUOjBlIXqrPur1lXAdJdebq4g8MVGp1mgFIOkKhYFNPrSSEFEUwqAVoqohVlvg8actXPC/f8JDf4s0gZB4FtNDmop+CDGynVXy9Xw5NvzHrfdgYdt4U5zg9/JEJkSZRc1VX+d+YRreuJMPJ6kjSVrSwCIIxrdtLBlIsHRo7F0/uvaBM278Le6MWGwmqYPcbrbwXC9vh+1JQPO5DT8k/7SHh1fFuV06g0OZTsgtuAbB2nJVUgrmlPWQYsWSMxi9Cue03nepoA5MjORUpwfvFOBrOVudHiDg6isXx/SaS0yLLo7SevTwOS7eNHMHTN1+S+RpA2lQR80jUS1Gq74SFZfFTb060CsGBguuJFy9eiC4v0DTDmtrDBtWd56otDZX83l0SVTWIyYQR8SN5CJ1IEheLaQqMHdLeQgot2jYMEyFII5klatcH5HhA9Z4XPrj3+Bn16ZiPRBKEZ7yAZRH1EVtEy67d1kuwPGNc1vvwcL0kGVFd4r6lwwUHz9xW8z9tx0wuORRuKYjg0ceAnPTJPeQGFuu+J/z7975hj9jYeoaqEd0s9Zu5GJZncfjVn3MildriE3TvCzLsg90phMjqVeUx8vgwiBRrkTKdKZYrewDYJNqsQF4venap2ZxLHwJg2Qzdq8YFosOM3/0yONjtzoFpm4DvP3g6dhn920xrhJBpUuFdWyQZCedJBLytZcIUaSppCIaYyP0e5Lz5DvlCnT3pOS3iVNckZYI3aWQDuBPUdhE1a+IiFLUDuHaDrI8RhpHIovA1CqMdKBwe2oIo0yMkW3fQyPswRPP+vjmt+7CigHquRZIYtNDOwt0ZlYUO13bRxRnVNv6CxBvlNT29R0s7oaFN/OpQtcwKwYOnAl8+YzD0Vp5H8bU2MRwZHnnew6i3MZAqwdXXPXA5N/fj+8vXI5D6xlp55Tlbuk7KcH4VUv1gVcrUHTs979WlVe+VqwIVqtur2llUaYg5cqi1NIsA4ZhGNfleX74KDi/DXUI02HiJOT4ZIfSX+HypYkWbMOSb2cR2esAM3dmcXQr7PH67VClEG8eaA8VwW60kRlBYcLEapbW59AmRWTG6qCht8LKgLDuQuVLHNslTTKkK+I5Cu3WkDCBbZtq8ikcR4mEo3K0ThjNyHIWW00frUChWpuIoVaKX932CM6/dKXUJwg5HCa/66BRHQNsv6ODP9xPJTQgZJZmiqbGXUiDWRtqwDfU5663YGHa5keVZX07irisgMjd+wlwzSVvE8q5bTRgqhBBxvqDgmP4WD5UweXXPTzroSex218fw7e1Bxf9upiPUtAk2RUA04DRsh0M4OYXHkzRCpVflyuOkiG6pmBSvH+TqJav6SK5cKfFSD4NmCfqCkIKh2zQAs8hYFxi7ArBZnbcjzh0C7z1LdMxZdsKak4L0dBCOGhhTMVBY3AAjrKlIElRGqm5WnoVJ4grM5XWp3ALJUCwe0HUqgXT4ApXIaVsWokAFnGickrogJPQnJmfnxJ3U4Ntb4VHHx3Ed797F55arHEVTCS5iuY9P2c/YKdpk7HDlK3Qt0UNTdXEL351Ly69VOt+aFaC8Hd/niA5ck1jNppeX1/BYgsYWCgnlgM1D7Aj4Ntn7Ynpk3O4xgpkdDu3EmQOK8oOVN6PW+6a/+Xr7lh50e8fwTNSdDbIFiVhneSs/LgUwQ9H02AVx7IlgGds2zbKwic7I9zWtkvScW7fWdWLP3UUnusGPCR7D8vIP2PliWhB2I4lKu1Whzepli/QdpTbTQbmHDAWB8/aFWPIks0CuEaEoDWAiiccWQHRSdfCoJgP9TYiKLsAdgntn3gNqmmRRVdYPRQ1jNJsafUJF5YItl9Bo03Gsw2vMlHUwW+4HghEwBk46LDNscO0Cdhl+36Mq6TYos9G0FiKhMQnO0fmmwiMXlz2kz/j//5U+6iyAFvA/f47QfbpDTjI6/Wj10uwsC0ni9PcoP+GGYXi9fHhY30c846ZMOOGOF6zLx7nLWQ2K8h9ePYZG5dfNM+9/lE8Giu8TkZeQI4mK8gXBVnrpPV6puv3w1jU/0sBChMd0BKs1bmbF3ZQXuwQOtqoFEjgg+o1tyml9kuT/Ks50r10PYvtTEOElKseQNU8pikMHPx6y17AIQe/GTtOGYcJlSGErUUwjBSWnSCjHoWRSAFSu65rEplwXgoNQxErziNZgVDc5/n0dq40WKNgM9dCKzRRq26BRYtb+NJZf8PUHYFpu1iYsuO22HyzfqRhBNeyYTBViYYEwUpLRSOlupuLRhgjd3oBrw//e/mduPp6Snh6qFMuUj9cv7Dqpv/SxnDRX3awUDC/oSz3tEAqVTpQ7DEdOPvzs2DHz8Ch7kKWQvkWmnEDqRmgFddw7fUL3nrzHdj18cU4PzcdGERUkCFp2XmbdmQbwWbb9iVJkhzfmWowcKw2CSpFP0dwLq7r3hiG4WEjeOum/pYPKBuXEixJ2IaohRHdr7MJUKNUui2mtoL80NzNsM+e0zB5cg3N1iI4qg3bDBEGTdH5EBo+mcGZoZXQmVYouhRqNGYeiT1Zh0CixmdIjUNochXEiYV58xZhxm4zEaUtBMlKmE4bSdhCLfegchsJMXwqQ5zU4Tk2LIGxu6jYfWiGCQIrhVGh8tbNuO2+HG3BzNvIYoozmx/OsuzC0X5hX1awsG379WmcPFCCZnqcBE4MXHzBPthxUoqwMV8EVATE4ig04xCG7+MPDy654aJrW0fPfxxDdapMs03KIxHkHrbhMn+0D1zH8Z1omuZFoolQQKPL10aCxeATkJvmnID8jE2OrbiO17JfUjMDZ1YqNtot+oMMs4H5M5GiTFH4feZMA4e+bVfMfMNE9DhDaNXnwzFjcVoXA2VqovIasY5h5EiolJ7GcMgzKUBcw5J7VK/QYC/eu9R5jbOmdEeY6jDdZJvDZgemEQlvJFIRTM9CPQhlpWmlCRRNoAJSFAxERojYGYt6PhlnnX8H7vgzENNnt2DBWpZ1RJqm167jWL0if/aygoVpmlmWGwaBNOVF+8rndsQ+u/UjWPYkqq62/aNKVDNuIzIctI2x+MEPH5l0+z04c0kDJ0UCzuMVyVmF/moURZ99Rc58/e5kN8MwCBYzpFgn1ofUkngJ4ZwX7L/ompTSmuv36Db+T5tdq1W/1hga2ounQi3WONQoCY60hUTo9KxVElp+1Lv6Mfst09E/xkLYXKZlA0U6MJEJr+1hM1FGJ97jeVvOIEGxZU5k3po0kGpLcZ71EJn4IS0GXFlR1Ij0zNpoog6jQrtEE67rIw2HYEYJ7NhDxXFhOBnqUYzQ68dAe3N88eu34aFHteIjD6h4WOwP4LbRernWOVjYtn1FHKdzGXodJ4Ed5jjwzcB/fXI2vPw5IG6iwryRUnKujXq4EqEai7vvr5/7k6uXX/DkM/jHUNIjJn+5EenoXjrzjtbReunj4i34V9M0pzBYlEXPNZ2KGCCbptwsvb29JDAx6Oz+wlgCgFgTPm0bhYXe8heIcq1pV5vI6+o0IDtXtFGYprCWQfOooubVYwMEfRIMeNhBVbzr8L0xrhYKN8XIB5FGrKERNlU41JtsofLm4+Xj0qWg12prJRFzdixToOdMiZRBLgqdz1xJVWgnYFi8i4kjyRGliTCoTeqYcFWTG4gi7XjIrklIe0pnPJrBZjjh1FvxbEO7u/u+r7VAAXJwHh+NF2udgoVSalaSZHeIeEpGOfUU1Qy4+vK3wVcLEbcWYUytirjZhiMU4QxtM0bL6Me5Fzy2+Z+ewDeXrTDnphiLlGIiYkGXHZWm+NloHKS1PKbzy87GSAqc8mDpcGxnGzaO44vTNL1dKfWhJEn2dhzHIAeFQaV0RutYidxiWdaFaZpes5bHubG/fSYMfEM52I8ixcRbsGzG775lIk8phacLonvNBA49aHvsutMWqLGfn9SRpSFMWiWQmCYIUHZItMqWYDqor2IkknLQPqFW7QPlP0h6thUh3CS/5UhMFlN0+5e0etMkh4QZtSV2CZr4RptF/l6jRVk0CUIb9WgLvPuku4TSHjHW2HzIyGqUHbcFo+0CrVOwYE/IUpYYAFWYM64CpHzlc1th5k4Ulm/CVbm4O1U9X/K6IM4RKg93PPDsT66+vnnyffNQF7MWoyrCurZtcIKs47GMtiGV4yG9+8ZOenc5yfliJ1BrTTiMkZxd0bLNlVIHJEkyapexIzmXdXzPf6yC9pyj84aCBsIVR9F6ZSfE4+ojBd5/TD/mHLI7Kh61KVbCxQBUHiBqkdBYkYARR4GIOLP1Kp2RnB642jdVWa5Q5gWNWxLVuN8OfIZ2o9eCO9TaKE2cSpCYBKRMIcQEzFvai5NPuxNMxykOzI+1lY84aRP8PHINhHUcuLX5s7WfoKZ1BbJ8Lk/YEV9w4KT3bYkjDpuIirMMaUjkZS4GtfQLRZzBVL0YiKr4/pX373TPXzD3H4vxOfaNBKnJqnOeEpzy87U58I3gvUwZllqWJXgMuY87yGcjXXWs6TzL5WsHWe3Lqx5l/2dNf7eJvn6w8vHtJMI001bIWNfILThiP9aWVUZvRbdiD3+Hg/3esiNeN8lGzU+Rx5FAvyueLauONGqLATcL9Jpxagg9gXANWeHJtUxhG0SP6vpJmUXruKF1NrQq2GqNsEKkR0PROXsSexKeXJDjI5++By1OFyG4CbU9z8XaqKDXjoILtpbBwn4jzPhPrPM47F2nKaZOWoWBPnM2xvcuh5Et0wj+LIOrXGSJpvjmZj8ee8Z9/Kgz7pvu0YqSzY/cBjVyi2rwWh7HKBi5kR/C5Uqp93EFwaDRifYc+Ue89DtLMFiZ0iilPhqGIRmtr81tHHqxEl8E8AnH7kEUMiUhOJDBI5OWKzdKVOw2A9h/3+nY/4CdkQQLELYWoH+Mg3ajIVorWUTamgFlG8jpC0vIuRTlaXzIma1rG9r6cTgs0KDZyjShTQsal8FDt2aF42KYIFFXeRPx+/sX4KvfXIRWRuELJbUNkbUn7XWUbGs3SZXKLCNh90l8OompOPvMmdh1Rx9ZuBCOYg6YSkEoaMVQypEUY/5iA1ffvPztdz3YGnp0AW5nCTqRNgijtPWpLIs3Wfn04jofBeCqF9DTnycks673Q7lCeRHlLvqNDK3r5246f2cdD5gXe27FiMNAsJPsnpTUTz66HQcYMwY47v2vwz57bQffGkLWHoRHf13TQNRqwTBjEcBJshhRSjMm4gGY26giA9FpiSCRRWdDBwlqgL7QaZ6F0azwMaGPDDkjPbVJuP7WJ/DV8wfQMICAH6KISEvnA/HWo+F6jDxYKHzTUMYnCWKhqW/NAI6c04cPn7AH4uY8ETtJ4haStCUsvjighiIx9SEGw/G44LxH3NuexI8GErxHFmX8R6/ORn4Mo2HE1v0Y6PsxwLSEq4yRamGsaXed6UwHOY2Yj/OyLPvUmv7+tfO6/QalvMuyJNtVT2gDSgyTtLQ/Fx1U+mI5/qR/3xoHvHUaxva0YWQrYOYBLDqvZSSEaayGpfjdQhBzzUIYeZGIyPdhKcaSVs+IUgYNMeWWYiqRpKGIT0exBauyJX5+6+M47+IBBC6Vu4geY1cFd4Vh+KoTz0Y2UX1/S5jRfISpAGAoqcjH1tU/eifs7AkY6TI4PivEkURgtplcoyYCJWGe4HcPrfjFKecOvouGTiE5NCw8iVJWemua46DXzg0r+e4lWZaJJOBIlbZeanz+FVXeNM0nsyyjRml3e94I1MavIoichSw/SbM72LjUtpSEYtUKb1muOI4+qoL9990Jm/c7cFSCLKzDMkhjp0JWQ1TSbKeqwVtiiVA++cq0JBM5yLLgKSkJ9TG44iCgq8B6VKtVDNE3tacfbasPV/zyflx4RR05jdJ015Uf/BNkmPtqXsyRBQtDLYaVbMaVgEfVo1UB46wzdsasmX0w2ovhWAmCnIomBMxkaAw24RnjxL6+mee48c6nD7/u9nTpX/6Be7MeUYoXNIpvWke103RTaJeu7TU8xLKsm9YGtPWvdvBCyb8O3EYX4LWmq2KbH0KSfZcPL1uxI5fL6oKTgt0T4ioYNOYcPAZzDp6BbSbbqKg6wvYSmGmAsbUK0jYVwLV9FGsWLE+UAjvDlgf6QDSVXpcgiMMQqwK2CWgvYBloxSHcyljAnYQLLr4TV90QIKAQFDkuGnR2zioUwulrOq0N9foag4Vtex+M4+gHRL2wR+wlwFFzJuBj/z4TaD6JikkJNKCeNZFZXJqxmKTQY45DGNpYGVu46KqHJ/7xMZzy+AJ8oZQaUJSqSDEGQH1Dndwo/1zDNM2Hsyzb+eUeJwMEN6Y2HR2XbrAY4cBalvXONEuvMUnnIMSCgryUSkhDKYqW6cmeM4H3HjkDu0zbAmlYhxEPogdDsBCLRB91Mhgg5LusBijMU7RYS3sC/p5tVamalIbOWnGcOhrNRgO2Ox6JOQnfu/y3+PFNoeAwCHImP8bO7Q/HiF8VHskag8VwgdeEY2SipXjlDw7BeHshnGQlHNhIsgSxkyC3ST8PxbDPziuI0yoGWjUcePIfjYpCztaQjBEjdipivGvc/wiv90b7NtM0P5tl2Vd4Amx/liS0kfBK+DedjNdOCT+xCspLSeyNdnhe2QO3sTsMXI4M06R5oUGZAgmnMI+4tBnA67YGjjlqL+y9+5boMf6ONFqMJM1hEHtEuL+tsRpKsU5B06VUri2vD+0GUtYvTLq4S+QoCqPa6kCxVUi4uWkjQD/Ou+Qu3PAbLVydZCbttzhp9o43rJvdi477S05WG/YVGeK5PqvArFeswhqf9vGtcNjsraDCJbDjAGZOC8EUscseUCbS7uTqqdxCkNQw71nv5gsv/+uRv3scDXoWkytGJqqdqa83k+CMV/ZuGNV7Kwv0vCbSnCtCa9l3K69VWRrWrjrFqrfjzDr/flSBekb16D//4CZB4ULXt94hyuV8uAm2XJBB0nolSnPatsB73rklZu29A3zPxFBjOZKwjt4eygg2xaVNRHeQiceMclwadUuFhOpbJoMJIt12LYhrVlHL4E5js4ahfDK+/I3f4N4HKGANKLeCIKRkX8YOyfxXckxfKljMMGA+pIk6mZjJ7D4D+PqX90fengcrCuCQ15CbSPMMsaOdtam1aFE6PY/RSnrx67uHjv3Fr1fc/+A8PCKi+ZKnWdTCmhMivemVPNnuvrojsJYjwNv+677rfYIT1DJpeKRla0qnNqJE+2vA8e+fgn33nILJfSmag3+HGa8QcyUaKREgFoUZamN6RSGcXBFmjso2kRJDTqEdeEjJWpb0JddAL2KRUg9wdsDHP3MTHnpaQzpzOvKxoGISZ16ckcDKZbsHBn6NHE8gxa2rpGVoZrVetpcKFktc25lAZFuVHZwE+N639sPkzZbASGkQpAS9Jm1ApEiVtoczElOwFgaG0AjH4odXLdzhjgex51MLcYXh+iJpRvfuqutMa4QNeot0t+4IbAwj8J+GZZ4tNpsko1DwhoGDTFYWRA1td3DiMf049IBdsNlYoN1YJMJPvm8JSYwpI1cYBNHxq90cgm9riYIctnROEot6oYUqIIWHMwtR1o+WNRUfOOUqPNcGuNhZrWdKLIa0W2j9WbCc+d+ie2tZikz83wHGlavwGhe/HOzNvwoWR8LETxm16CJG7sd7DzNx8nGzkEfPoFrJsHTpUvT394kvZkagmfB+FQxi6A2GjwYGozG44KJn+//0GE5Y0sQ5zciVFpUg3hC+5usVG8MM6R7jC0bAxIeU5303ob0BV8mGCc73NIpW0+THeMB7/2083v32PeEaS2Dmy5GHdfRUHAQh1bk8WDaxSDHsnCAxLSicmiliSwvvsFbClMQFbQgspG4fBsI+HH3CzWA3laL3jAdRWri2sb1YrC7IX5MAVCasOeBXqmi3aOiUz7M85/S03V5resW/mrC5VHXSHD0W4MfALT87HFbwJJLmUvg9JnLbwFC7JerIYlhLzXNCwGN6PgCR1cCKcBxO+848Z8Fj+MGyJo5N4Ykfg0it50k3WHRn4sY7AhaOg2FdCrmNWbAk6zWFb2fIYqlAwFO069wKs960LfrHZBgaXISqbyNPE7TboYAXSTbRvig0JkrF5qDMLBgsyNpuhyncHh/NpIqnn/Pwqc/eiwYtfxkEfB0UyFkhOVOURguDI77O11ZDxEiRKbIV5Tt5EkRnIMPZI70I/zRh6SZu2u43xH/SSeAmwJdOm46DXj8eXrwUvsrQDAYRuglswjaF+cL8g6HOhJVY0jOOjEgi4ewTHzE2r+GPSxvYneUhi6AtHfG6wWKkV6n7vlE7AhXHOiLM0qtTqvVRbDjRNWc+a4m/kIIogBOP3Q6H7r8Ler06smgham6IOBqCYfkiNjzsgaJJaaULfJKkqNVqaKwYhOtVYTi9WFJP4Y+f1r7iihumP/Z4EHhAn21rXJnTg77eXuziVsbuDtV7yH0PPDP54b8C5NRxigoV3ikwJey+xWR74l0A1qjS9U8T1ldeHiSRkGbY1dhtZ+Dczx2AnmABaghEoNTxbIR2jIisOzaURMKdwcKASgwYykBkxVgWTMB+J9xvjLMxUI8xjt4LFBMxLDyRJ5g2au+A7oF1R2AtR8Dz1H5BmPwauTIM5SIvgoYiPimLQW891jWOf984zDngDej128jSASh6oBiUzkl16lHiMWhbIM9gUwyPrDSHp2gQnYjfTuJMwPLBCD4sWKwdimMb27YuHLcHUI7I9oVpBcvrCW697QFccdV8gS7Q37XUx2aVQznUEI3vRg4aXv3L7XnBYpWNwueN1PkSH+/RmgAAB55JREFUizbk1Ekp+IvTMGWrBJvXMhhhC3nswrAUIrJLTbpYa09KUUzOqIdsILNSNPMWBsNJOOiEh41aAdoUEzvdIPw9UohEWnfrjsCmNQJqf2U7tyZxSpCFsFxJXHMKLxSv+H7iCTOx/5u3w+Te+YiGnoJX8RHGFIEyYQtXRGt5ikQ5RS4SXccQAJ6lEBMxKg9p8lLE8nn1akQIbUYiWhpcxbvVsWi0LcTZONx48yO49IfPCe+dkn5kGpoe5SQE9ZQjBjlMgy92TZ6/sjCQ23R0ItPeAHbbCfj86fuj5i2Bna8Qzj+yHpiGrXMrItXiVFvQs8hZ+H5SoaxFVcJgEg754INGL+u0JhBQAFzbxz2IDG/YtG6S7tl0R2B4BHy/d8920L7XtpRBE2XCD7jRQtVh7SAGKhbwkff34Yg5b0CWNmFZMZJ4EB7p8FmgLRSzHD09PdLoiMIYpqWFd8h+JeKTsAWdshC3oDScXNS/QrHfoJHaykYdXnUCorQXytsey1e6uOxHt+DG37QRWEC7+AhFFfVYrF6p1KV9gDq21cHCNHGSp6zvsczKKFO1gK996UjMmE6r0adh5iskOmox01wXY2gga2hkGrn7PCEDNnJlSs1iKNwcB77vt8Z2vZUFi+utSVxZiAltZi7LkU3o3lzdEdj0R0DtbZrZdZ6y+sPCrY9SFVx0iJg1UaGKNY3pOOitUzGmshxmvAhG2oBj5hJU0sIhnumC4tyiCE+Sw/VsxHHJNNNck1I3wxRZwAhh2ML4ieOxeGA5DKuKxOpFnPbAdMbi/odW4syzHhTDJAaxOKdZE0n83PLTgOSbLxosXNvJI64caD3oABQ+/dgph6PiLIWRPCdaFZ5DjESOmDRdiwGILtFEuZOzbwjGgtaERKykZoR20oeLLnpkVpj0Xr5oRX0bCufxoPLMJoxr1Ih6bPo3bPcMR8EI7O3b5nVpkvWzS0EBeMkwCpgu2a5cEJx6wkS8bfbOqNoNWFlDYAg0ROJKgnMtyVPpglDiT9zZVz/uix9KoprgRPn01hqgraANv9aLzLDRSlI4XhX1Zi/+9pSPz37+ToGTM0jEol5HtniTldkZiPBIOXayB7e3d0o4VBeAlFetIGi2hN/P/EogIxS7KaY26zaiB0D9ikIzUPeENU6k/GK6wdeZM0X0drQzEVAWxqnkLxoZ3926I/BaGgFfYe8owd2cKgwYIjLMLIKm0B5A03jaanz05Kk4ePZ0eOZiZPFzsBDCprwfV/6Eh1u5oEMl4+gcwEILtNTOYIem3Wyh1tuDdthClMawCRKLmrD98cjtrbBkeQ+OO+EmCRbUF+cUNRwTYZIRcbn6oV7sxz7B9KzvswOSh+T3F6uZRNvGaYpLp5JgQcUtZIG0mIcOEyyzaO9p/R5DeYjYADaLs1rNbHB3AMJ5r6UbpXuu3REoR0AB+6TAnfy/45iIaILKtESaBrQGBzYbBxw3dwscsM80jPFDDCx9GlXfh2vnaLWbUrNgTYPzr5T2KyevkWlH+SRIUfF6xJqC0oBpFooLvV9zMNhqITZ8xJiIZcv78ZFP/BqNlGbQWjyYiNJV5JXPrOp1fI2fK8HCtisnx3F8IWmwBEwp10QiYqe6lSOphQQLeiKw25GTXj68FQFAC4hohKZGaeqlDVl4tmcjaIbwPB9BK4Tj1I6KosHXopZFd8Z0R2D1CHge9g1C3M656Fc8tJsBbMcotD8BVwGTJgBz3zMFcw7cCVnwLJKhRRhbqSBLAqG2a29Wjfws1v2iHs68QBkVpGEGZdrSYmWwSHPt1ZMYsS4G2H2I84m4496FOOdbT+tAwblLDVI+5OnRVAYLE/YnLFOdF5PMj1gQYGxsyIoiJymWjdREbNyGI5hJxRCgqHNo6CvbOMMyCkKLEcu3Yf08MYUxXSYi50ZZ+KoJeXTv1+4IjKYRcF3rHWGU/lJ7NBakY9YGCWFgt5Qu3FsDxx61DWbtMRUOAsRBA4ZNDVAGCkIZhm0HOG/ZIaEuRxykcJUPyzCQikUoawYJLMdEjAhBRkzHWIT5BJzz31fjnj/QHMVEO6buRsKdH40UV3XrBqPpjukeS3cE4BzhuM41bJMyUCiBj7PrqKnx1PndczcTB+w3QxTqMupfcBUgIsDa/b30KdHpCdW5NBaj/H8HAFzAlDQLa4Yx3J7NcN/Dz+G66/9KBw+2OhAjgGFml2UZju8Gi+7t2R2BUTgCtud9IAnjy1j55ArftSoihi3N0aKLwBIBa4q6YlF8lQuTjpkt65RhDeHVZysZTEG3F8CpmEBrGT/bdAUizgonfWIZhrrBYhTeKN1D6o5AOQI23I85lv8tquTbih0KylcWOKwEcItywYsqIRWzu5zknVgFwWEVrm2UxWR9tWCoyK4tAi8lEHHlwmQk6AaL7m3ZHYGNYQR8p+/0IBr6OvHYUsBgkFAurEh7uqbC5JLEpWCtFuyPTovFjhOVRiaxUfJuorZt6eUKIzwTMDmU6SFhVwXm1Qka7+6uLDaGO6V7jN0RKEdAqf9EkpzNx7zgm4rf6z6I5ojwOzeGjvK3nXUKQid09sIUQ9dT6RCof0cyGp3oWQglyJIaNPanMtTP+/+qv9EihCLWkgAAAABJRU5ErkJggg==;" vertex="1" parent="LMz8NPfEcVhVKiX4Ou-Z-8">
          <mxGeometry x="75" y="145" width="70" height="49.55" as="geometry" />
        </mxCell>
        <mxCell id="LMz8NPfEcVhVKiX4Ou-Z-17" value="&lt;font color=&quot;#ffffff&quot;&gt;Application artifact stored in S3 bucket&lt;/font&gt;" style="sketch=0;points=[[0,0,0],[0.25,0,0],[0.5,0,0],[0.75,0,0],[1,0,0],[0,1,0],[0.25,1,0],[0.5,1,0],[0.75,1,0],[1,1,0],[0,0.25,0],[0,0.5,0],[0,0.75,0],[1,0.25,0],[1,0.5,0],[1,0.75,0]];outlineConnect=0;fontColor=#232F3E;fillColor=#7AA116;strokeColor=#ffffff;dashed=0;verticalLabelPosition=bottom;verticalAlign=top;align=center;html=1;fontSize=12;fontStyle=0;aspect=fixed;shape=mxgraph.aws4.resourceIcon;resIcon=mxgraph.aws4.s3;" vertex="1" parent="1">
          <mxGeometry x="960" y="336" width="78" height="78" as="geometry" />
        </mxCell>
        <mxCell id="LMz8NPfEcVhVKiX4Ou-Z-18" style="edgeStyle=orthogonalEdgeStyle;rounded=0;orthogonalLoop=1;jettySize=auto;html=1;entryX=1;entryY=0.5;entryDx=0;entryDy=0;entryPerimeter=0;" edge="1" parent="1" source="LMz8NPfEcVhVKiX4Ou-Z-17" target="LMz8NPfEcVhVKiX4Ou-Z-9">
          <mxGeometry relative="1" as="geometry" />
        </mxCell>
        <mxCell id="LMz8NPfEcVhVKiX4Ou-Z-22" style="edgeStyle=orthogonalEdgeStyle;rounded=0;orthogonalLoop=1;jettySize=auto;html=1;exitX=0.5;exitY=1;exitDx=0;exitDy=0;exitPerimeter=0;entryX=0.5;entryY=0;entryDx=0;entryDy=0;" edge="1" parent="1" source="LMz8NPfEcVhVKiX4Ou-Z-19" target="LMz8NPfEcVhVKiX4Ou-Z-6">
          <mxGeometry relative="1" as="geometry" />
        </mxCell>
        <mxCell id="LMz8NPfEcVhVKiX4Ou-Z-23" value="Monitors" style="edgeLabel;html=1;align=center;verticalAlign=middle;resizable=0;points=[];" vertex="1" connectable="0" parent="LMz8NPfEcVhVKiX4Ou-Z-22">
          <mxGeometry x="-0.1087" y="1" relative="1" as="geometry">
            <mxPoint as="offset" />
          </mxGeometry>
        </mxCell>
        <mxCell id="LMz8NPfEcVhVKiX4Ou-Z-19" value="" style="sketch=0;points=[[0,0,0],[0.25,0,0],[0.5,0,0],[0.75,0,0],[1,0,0],[0,1,0],[0.25,1,0],[0.5,1,0],[0.75,1,0],[1,1,0],[0,0.25,0],[0,0.5,0],[0,0.75,0],[1,0.25,0],[1,0.5,0],[1,0.75,0]];points=[[0,0,0],[0.25,0,0],[0.5,0,0],[0.75,0,0],[1,0,0],[0,1,0],[0.25,1,0],[0.5,1,0],[0.75,1,0],[1,1,0],[0,0.25,0],[0,0.5,0],[0,0.75,0],[1,0.25,0],[1,0.5,0],[1,0.75,0]];outlineConnect=0;fontColor=#232F3E;fillColor=#E7157B;strokeColor=#ffffff;dashed=0;verticalLabelPosition=bottom;verticalAlign=top;align=center;html=1;fontSize=12;fontStyle=0;aspect=fixed;shape=mxgraph.aws4.resourceIcon;resIcon=mxgraph.aws4.cloudwatch_2;" vertex="1" parent="1">
          <mxGeometry x="571" y="30" width="78" height="78" as="geometry" />
        </mxCell>
        <mxCell id="LMz8NPfEcVhVKiX4Ou-Z-24" value="VPC" style="points=[[0,0],[0.25,0],[0.5,0],[0.75,0],[1,0],[1,0.25],[1,0.5],[1,0.75],[1,1],[0.75,1],[0.5,1],[0.25,1],[0,1],[0,0.75],[0,0.5],[0,0.25]];outlineConnect=0;gradientColor=none;html=1;whiteSpace=wrap;fontSize=12;fontStyle=0;container=1;pointerEvents=0;collapsible=0;recursiveResize=0;shape=mxgraph.aws4.group;grIcon=mxgraph.aws4.group_vpc2;strokeColor=#8C4FFF;fillColor=none;verticalAlign=top;align=left;spacingLeft=30;fontColor=#AAB7B8;dashed=0;" vertex="1" parent="1">
          <mxGeometry x="234" width="926" height="800" as="geometry" />
        </mxCell>
        <mxCell id="LMz8NPfEcVhVKiX4Ou-Z-7" value="&lt;font color=&quot;#ffffff&quot;&gt;Application Load Balancer&lt;/font&gt;" style="sketch=0;outlineConnect=0;fontColor=#232F3E;gradientColor=none;fillColor=#8C4FFF;strokeColor=none;dashed=0;verticalLabelPosition=bottom;verticalAlign=top;align=center;html=1;fontSize=12;fontStyle=0;aspect=fixed;pointerEvents=1;shape=mxgraph.aws4.application_load_balancer;" vertex="1" parent="LMz8NPfEcVhVKiX4Ou-Z-24">
          <mxGeometry x="196" y="336" width="78" height="78" as="geometry" />
        </mxCell>
        <mxCell id="LMz8NPfEcVhVKiX4Ou-Z-26" value="&lt;font color=&quot;#ffffff&quot;&gt;RDS&lt;/font&gt;" style="sketch=0;points=[[0,0,0],[0.25,0,0],[0.5,0,0],[0.75,0,0],[1,0,0],[0,1,0],[0.25,1,0],[0.5,1,0],[0.75,1,0],[1,1,0],[0,0.25,0],[0,0.5,0],[0,0.75,0],[1,0.25,0],[1,0.5,0],[1,0.75,0]];outlineConnect=0;fontColor=#232F3E;fillColor=#C925D1;strokeColor=#ffffff;dashed=0;verticalLabelPosition=bottom;verticalAlign=top;align=center;html=1;fontSize=12;fontStyle=0;aspect=fixed;shape=mxgraph.aws4.resourceIcon;resIcon=mxgraph.aws4.rds;" vertex="1" parent="LMz8NPfEcVhVKiX4Ou-Z-24">
          <mxGeometry x="176" y="680" width="78" height="78" as="geometry" />
        </mxCell>
        <mxCell id="LMz8NPfEcVhVKiX4Ou-Z-29" value="&lt;font color=&quot;#ffffff&quot;&gt;Amazon MQ&lt;/font&gt;" style="sketch=0;points=[[0,0,0],[0.25,0,0],[0.5,0,0],[0.75,0,0],[1,0,0],[0,1,0],[0.25,1,0],[0.5,1,0],[0.75,1,0],[1,1,0],[0,0.25,0],[0,0.5,0],[0,0.75,0],[1,0.25,0],[1,0.5,0],[1,0.75,0]];outlineConnect=0;fontColor=#232F3E;fillColor=#E7157B;strokeColor=#ffffff;dashed=0;verticalLabelPosition=bottom;verticalAlign=top;align=center;html=1;fontSize=12;fontStyle=0;aspect=fixed;shape=mxgraph.aws4.resourceIcon;resIcon=mxgraph.aws4.mq;" vertex="1" parent="LMz8NPfEcVhVKiX4Ou-Z-24">
          <mxGeometry x="423" y="680" width="78" height="78" as="geometry" />
        </mxCell>
        <mxCell id="LMz8NPfEcVhVKiX4Ou-Z-32" value="&lt;font color=&quot;#ffffff&quot;&gt;Elasticache for memcached&lt;/font&gt;" style="sketch=0;points=[[0,0,0],[0.25,0,0],[0.5,0,0],[0.75,0,0],[1,0,0],[0,1,0],[0.25,1,0],[0.5,1,0],[0.75,1,0],[1,1,0],[0,0.25,0],[0,0.5,0],[0,0.75,0],[1,0.25,0],[1,0.5,0],[1,0.75,0]];outlineConnect=0;fontColor=#232F3E;fillColor=#C925D1;strokeColor=#ffffff;dashed=0;verticalLabelPosition=bottom;verticalAlign=top;align=center;html=1;fontSize=12;fontStyle=0;aspect=fixed;shape=mxgraph.aws4.resourceIcon;resIcon=mxgraph.aws4.elasticache;" vertex="1" parent="LMz8NPfEcVhVKiX4Ou-Z-24">
          <mxGeometry x="726" y="670" width="78" height="78" as="geometry" />
        </mxCell>
        <mxCell id="LMz8NPfEcVhVKiX4Ou-Z-37" value="&lt;font color=&quot;#999999&quot;&gt;https://github.com/mark-john-ignacio&lt;/font&gt;" style="text;html=1;align=center;verticalAlign=middle;resizable=0;points=[];autosize=1;strokeColor=none;fillColor=none;" vertex="1" parent="LMz8NPfEcVhVKiX4Ou-Z-24">
          <mxGeometry x="706" width="220" height="30" as="geometry" />
        </mxCell>
        <mxCell id="LMz8NPfEcVhVKiX4Ou-Z-12" style="edgeStyle=orthogonalEdgeStyle;rounded=0;orthogonalLoop=1;jettySize=auto;html=1;" edge="1" parent="1" source="LMz8NPfEcVhVKiX4Ou-Z-7" target="LMz8NPfEcVhVKiX4Ou-Z-9">
          <mxGeometry relative="1" as="geometry" />
        </mxCell>
        <mxCell id="LMz8NPfEcVhVKiX4Ou-Z-25" value="Incoming traffic" style="edgeLabel;html=1;align=center;verticalAlign=middle;resizable=0;points=[];" vertex="1" connectable="0" parent="LMz8NPfEcVhVKiX4Ou-Z-12">
          <mxGeometry x="-0.4286" y="-1" relative="1" as="geometry">
            <mxPoint x="1" as="offset" />
          </mxGeometry>
        </mxCell>
        <mxCell id="LMz8NPfEcVhVKiX4Ou-Z-27" style="edgeStyle=orthogonalEdgeStyle;rounded=0;orthogonalLoop=1;jettySize=auto;html=1;exitX=0.5;exitY=1;exitDx=0;exitDy=0;" edge="1" parent="1" source="LMz8NPfEcVhVKiX4Ou-Z-16" target="LMz8NPfEcVhVKiX4Ou-Z-26">
          <mxGeometry relative="1" as="geometry">
            <Array as="points">
              <mxPoint x="700" y="590" />
              <mxPoint x="449" y="590" />
            </Array>
          </mxGeometry>
        </mxCell>
        <mxCell id="LMz8NPfEcVhVKiX4Ou-Z-28" value="Database operations" style="edgeLabel;html=1;align=center;verticalAlign=middle;resizable=0;points=[];" vertex="1" connectable="0" parent="LMz8NPfEcVhVKiX4Ou-Z-27">
          <mxGeometry x="0.7634" relative="1" as="geometry">
            <mxPoint as="offset" />
          </mxGeometry>
        </mxCell>
        <mxCell id="LMz8NPfEcVhVKiX4Ou-Z-30" style="edgeStyle=orthogonalEdgeStyle;rounded=0;orthogonalLoop=1;jettySize=auto;html=1;" edge="1" parent="1" source="LMz8NPfEcVhVKiX4Ou-Z-16" target="LMz8NPfEcVhVKiX4Ou-Z-29">
          <mxGeometry relative="1" as="geometry">
            <Array as="points">
              <mxPoint x="700" y="620" />
              <mxPoint x="700" y="620" />
            </Array>
          </mxGeometry>
        </mxCell>
        <mxCell id="LMz8NPfEcVhVKiX4Ou-Z-31" value="Flow of messages for asynchronous processing" style="edgeLabel;html=1;align=center;verticalAlign=middle;resizable=0;points=[];" vertex="1" connectable="0" parent="LMz8NPfEcVhVKiX4Ou-Z-30">
          <mxGeometry x="0.4807" relative="1" as="geometry">
            <mxPoint y="-1" as="offset" />
          </mxGeometry>
        </mxCell>
        <mxCell id="LMz8NPfEcVhVKiX4Ou-Z-34" style="edgeStyle=orthogonalEdgeStyle;rounded=0;orthogonalLoop=1;jettySize=auto;html=1;exitX=0.5;exitY=1;exitDx=0;exitDy=0;entryX=0.5;entryY=0;entryDx=0;entryDy=0;entryPerimeter=0;" edge="1" parent="1" source="LMz8NPfEcVhVKiX4Ou-Z-16" target="LMz8NPfEcVhVKiX4Ou-Z-32">
          <mxGeometry relative="1" as="geometry">
            <Array as="points">
              <mxPoint x="700" y="590" />
              <mxPoint x="1000" y="590" />
              <mxPoint x="1000" y="670" />
            </Array>
          </mxGeometry>
        </mxCell>
        <mxCell id="LMz8NPfEcVhVKiX4Ou-Z-35" value="Data retrieval/storage operations to optimize performance." style="edgeLabel;html=1;align=center;verticalAlign=middle;resizable=0;points=[];" vertex="1" connectable="0" parent="LMz8NPfEcVhVKiX4Ou-Z-34">
          <mxGeometry x="0.7921" y="2" relative="1" as="geometry">
            <mxPoint as="offset" />
          </mxGeometry>
        </mxCell>
      </root>
    </mxGraphModel>
  </diagram>
</mxfile>
